<svg id="Layer_1" data-name="Layer 1" xmlns="http://www.w3.org/2000/svg" viewBox="0 0 202.86 261.34"><defs><style>.cls-1{fill:#9ad5c0;fill-rule:evenodd;}.cls-2{fill:#231f20;}.cls-3{fill:#fff;}</style></defs><title>faceicon</title><polygon class="cls-1" points="0 0 202.86 0 183.36 261.34 0 261.34 0 0"/><path class="cls-2" d="M134.12,90.3a4.62,4.62,0,0,0,.53-.66c.13-.24.46-5.55.46-5.55l6.24-2.35s.54-6.37.73-6.54-6.36.73-6.36.73.89-41,.93-41.64-.91-1.16-1.71-1.45a7.6,7.6,0,0,0-2.17-.26l-2.5-.72-2.72-.55-4.6-.1-1.71-.29-4.1.18-2.21-.47-2.72,0-3.95-.07-2,.18-1.37-.49-1.71.34-1-.34H83.61l-1,.34-1.7-.34-1.38.49-2-.18-3.95.07-2.72,0-2.21.47-4.1-.18-1.7.29-4.6.1-2.72.55-2.5.72a7.69,7.69,0,0,0-2.18.26c-.8.29-1.74.76-1.7,1.45s1,42.44,1,42.44-6.21-1.85-6-1.68-.17,6.82-.17,6.82l6.71,2.42s.36,5.11.49,5.35a4.62,4.62,0,0,0,.53.66,50.29,50.29,0,0,0,1.18,30.21s-5,8.5.54,22c0,0-3.41,30.11,1.71,39.94a8.92,8.92,0,0,0-1.82,3.65c-.23,1.76-.47,9.28,0,11.24s1.41,4.66,4.78,4c0,0-.16,5.79,3.64,5.32l.35,2.51s1,3,4.78,1.53c0,0,.47,2.43,1.61,2.82s4.58-.71,4.58-.71l.39,2.23,6.93.91,2.47,3.32,10.06,3.23,10.06-3.23,2.47-3.32,6.93-.91.39-2.23s3.44,1.1,4.58.71,1.61-2.82,1.61-2.82c3.79,1.49,4.77-1.53,4.77-1.53l.35-2.51c3.8.47,3.65-5.32,3.65-5.32,3.36.63,4.26-2.08,4.77-4s.28-9.48,0-11.24a8.79,8.79,0,0,0-1.82-3.65c5.12-9.83,1.72-39.94,1.72-39.94,5.5-13.52.53-22,.53-22A50.34,50.34,0,0,0,134.12,90.3Z"/><path class="cls-3" d="M53.09,92s20.77,4.89,33.06,30.16c0,0-5.49,6.64-11.45,8.78S63,128.35,63,128.35,48.74,116.75,53.09,92Z"/><path class="cls-2" d="M84.72,121.93s-7.16-14.51-30.07-27.22c0,0-2.71,13.82,5.48,25.43C67,129.85,74.4,128.88,84.72,121.93Z"/><path class="cls-3" d="M83.17,119.51s-5.19-11-21-20.1c0,0-2.2,4.7,2.5,11.5S74.78,123.31,83.17,119.51Z"/><path class="cls-3" d="M132.28,92s-20.77,4.89-33.06,30.16c0,0,5.49,6.64,11.45,8.78s11.68-2.6,11.68-2.6S136.63,116.75,132.28,92Z"/><path class="cls-2" d="M100.64,121.93s7.16-14.51,30.08-27.22c0,0,2.71,13.82-5.48,25.43C118.39,129.85,111,128.88,100.64,121.93Z"/><path class="cls-3" d="M102.19,119.51s5.2-11,21-20.1c0,0,2.2,4.7-2.5,11.5S110.59,123.31,102.19,119.51Z"/><path class="cls-3" d="M129.26,69.73c-3,3.77-8,5-8,5,1.89-2.82,7.58-7.63,7.58-7.63a29,29,0,0,0-5.25-10.68c-2.86,5.08-9.58,8.47-9.58,8.47,2.31-5.55,7.44-11.06,7.44-11.06C116.93,47,104,42,104,42c-.31,6.55-4.53,14.48-4.53,14.48.71-9.79,1.18-15.69,1.18-15.69l-7.79-1.56-7.8,1.56s.47,5.9,1.18,15.69c0,0-4.22-7.93-4.52-14.48,0,0-12.91,4.92-17.38,11.79,0,0,5.13,5.51,7.43,11.06,0,0-6.72-3.39-9.57-8.47A29.16,29.16,0,0,0,57,67.09s5.7,4.81,7.58,7.63c0,0-5.08-1.22-8.05-5,0,0-.51,1.18-.82,5.51,0,0,8.11,3.87,18.28,10,0,0,1.61-6.86,7.55-10.3s10-3.75,10-3.75v-5a37.13,37.13,0,0,0-18.13,10,14.31,14.31,0,0,1-8.44-9.69s4.29,2.08,9.07,8a26.48,26.48,0,0,1,7.62-5.9s-5.47-6.32-6.85-11.21c0,0,4.59,2.06,9.15,9.11l6.48-2,2.53-11.51,2.53,11.51,6.48,2c4.56-7,9.15-9.11,9.15-9.11-1.39,4.89-6.85,11.21-6.85,11.21a26.33,26.33,0,0,1,7.61,5.9c4.79-5.94,9.07-8,9.07-8a14.28,14.28,0,0,1-8.43,9.69,37.17,37.17,0,0,0-18.13-10v5s4,.31,10,3.75,7.54,10.3,7.54,10.3c10.18-6.13,18.29-10,18.29-10C129.78,70.91,129.26,69.73,129.26,69.73Z"/><path class="cls-3" d="M114.37,188a28.63,28.63,0,0,0-3.59,1.36c-1.38.69-3.48,1.62-4.92,2.2s-4.57,2.21-5,2.21-8-.63-8-.63-7.51.63-8,.63-3.58-1.62-5-2.21S76.35,190,75,189.33A28,28,0,0,0,71.38,188l-.39.33a16.15,16.15,0,0,0,2.38,1.47c.57.17,4.63,3,7.42,4.1a32.3,32.3,0,0,0,7.43,1.7c1.91.27,4.66-1,4.66-1s2.74,1.26,4.66,1a32.41,32.41,0,0,0,7.43-1.7c2.79-1.09,6.84-3.93,7.41-4.1a15.62,15.62,0,0,0,2.38-1.47Z"/><path class="cls-3" d="M126.09,165.89,124,172.18l-.35-4.64s-3.35.65-4,.7-4.47.06-5.12.42-3.23,6.28-3.23,6.28l-.64-6-12.93-.32-4.83,5.64-4.83-5.64-12.93.32-.65,6s-2.58-5.93-3.23-6.28-4.46-.36-5.11-.42-4-.7-4-.7l-.35,4.64-2.11-6.29-4-3c.47,4.58,1.7,8.34,4.23,10.52s8.46,3.23,8.46,3.23l4.7.35,1.21-.29,1,.29,5.93-.35h23.41l5.94.35,1-.29,1.21.29,4.7-.35s5.94-1.06,8.47-3.23,3.76-5.94,4.23-10.52Z"/><path class="cls-3" d="M125,153.14c-.32-2.55-1.77-4.91-2.64-4.65s-5.27,1.23-5.27,1.23l-10.59,7-11.09,3.79-2.49.87-2.5-.87L79.3,156.68l-10.6-7s-4.39-1-5.26-1.23-2.33,2.1-2.64,4.65.47,6.07,1.5,7.33,5,2.14,8.22,2.58a43,43,0,0,0,11.87-.15c3.49-.66,10.49.5,10.49.5s7-1.16,10.48-.5a43,43,0,0,0,11.87.15c3.24-.44,7.2-1.31,8.23-2.58S125.27,155.7,125,153.14Z"/><path class="cls-3" d="M130.52,146.07c-2.48-1.86-7.06-.78-10.71.47s-8.15,5.28-11.32,7.68a28.29,28.29,0,0,1-8.51,4.43c-2,.62-7.1.46-7.1.46s-5.06.16-7.11-.46a28.26,28.26,0,0,1-8.5-4.43c-3.17-2.4-7.67-6.44-11.32-7.68s-8.23-2.33-10.72-.47A11.88,11.88,0,0,0,51,156.24c.24,4.66,1.25,11.88,2,13.43s2.56,5.05,5.67,7,8,2.64,11.4,3.11,15.64.1,17.73,0,3.13-.14,3.16-1.11-1.47-1.13-3.45-1.15-7.85.29-9.15.47a54.07,54.07,0,0,1-9.61.12c-2.54-.39-4.4-.39-6.79-1.48s-5.49-3.42-6.73-6.17A26.26,26.26,0,0,1,53,159c0-5.1,1.29-7.76,2.12-8.8s1.7-2.07,5.18-2.2,9.09,2.83,9.09,2.83l8.72,6.1s4.07,3.44,6.51,4.19a20.07,20.07,0,0,0,8.3.79,20,20,0,0,0,8.29-.79c2.45-.75,6.52-4.19,6.52-4.19l8.72-6.1s5.59-2.95,9.08-2.83,4.36,1.17,5.19,2.2,2.07,3.7,2.11,8.8a26.11,26.11,0,0,1-2.25,11.43c-1.24,2.75-4.33,5.08-6.72,6.17s-4.25,1.09-6.79,1.48a54.17,54.17,0,0,1-9.62-.12c-1.3-.18-7.17-.5-9.14-.47s-3.48.17-3.45,1.15,1.06,1,3.15,1.11,14.31.46,17.74,0,8.29-1.17,11.4-3.11,4.89-5.44,5.66-7,1.79-8.77,2-13.43A11.83,11.83,0,0,0,130.52,146.07Z"/><path class="cls-3" d="M107.19,146.23c-1.42.85-2.16,1.44-5.34,3.21a12.35,12.35,0,0,1-9,1,12.35,12.35,0,0,1-9-1c-3.19-1.77-3.93-2.36-5.34-3.21s-2.49.54-.57,1.62,5,3,6.32,3.9a10.3,10.3,0,0,0,8.56,1.7,10.27,10.27,0,0,0,8.55-1.7c1.31-.87,4.41-2.82,6.33-3.9S108.6,145.39,107.19,146.23Z"/><path class="cls-3" d="M108.51,142.91c-1.28-3.71-7.29-3.07-7.29-3.07l-7.44-16.1,6,19.17C103,140.35,108.51,142.91,108.51,142.91Z"/><path class="cls-3" d="M86.25,142.91l6-19.17-7.43,16.1s-6-.64-7.29,3.07C77.56,142.91,83.06,140.35,86.25,142.91Z"/><path class="cls-3" d="M92.88,112.14l-.5-.44A165.75,165.75,0,0,0,58.66,88.94a107.34,107.34,0,0,0-14.83-6.31l-.52-.16L43,73.77l1,.28c24.21,6.72,45.38,23.49,48.85,26.32,3.46-2.83,24.63-19.6,48.84-26.32l1-.28-.27,8.7-.52.16a107.1,107.1,0,0,0-14.84,6.31A166,166,0,0,0,93.38,111.7ZM44.8,81.34a114.48,114.48,0,0,1,14.51,6.23,166.55,166.55,0,0,1,33.57,22.55,166.27,166.27,0,0,1,33.57-22.55A114.48,114.48,0,0,1,141,81.34l.17-5.54c-25.6,7.42-47.54,26-47.76,26.14l-.49.42-.5-.42c-.22-.19-22.16-18.72-47.76-26.14Z"/></svg>