<?xml version="1.0" encoding="utf-8"?>
<!-- Generator: Adobe Illustrator 16.0.4, SVG Export Plug-In . SVG Version: 6.00 Build 0)  -->
<!DOCTYPE svg PUBLIC "-//W3C//DTD SVG 1.1//EN" "http://www.w3.org/Graphics/SVG/1.1/DTD/svg11.dtd">
<svg version="1.1" id="Layer_1" xmlns="http://www.w3.org/2000/svg" xmlns:xlink="http://www.w3.org/1999/xlink" x="0px" y="0px"
	 width="1030.91px" height="199.934px" viewBox="0 0 1030.91 199.934" enable-background="new 0 0 1030.91 199.934"
	 xml:space="preserve">
<g>
	<defs>
		<rect id="SVGID_1_" width="1030.911" height="199.934"/>
	</defs>
	<clipPath id="SVGID_2_">
		<use xlink:href="#SVGID_1_"  overflow="visible"/>
	</clipPath>
	<path clip-path="url(#SVGID_2_)" fill-rule="evenodd" clip-rule="evenodd" fill="#FFFFFF" d="M138.49,139.384
		c-7.616-7.221-15.293-14.519-24.25-20.044c-12.026,7.58-27.993,10.198-41.011,3.532c-13.178-6.447-19.948-22.238-17.659-36.405
		c2.991-19.602,19.396-35.502,38.259-40.389c12.343-3.334,26.755-1.043,36.055,8.193c6.775,6.445,9.727,15.887,9.891,25.069
		c9.642,3.943,18.286,9.889,27.709,14.196c4.515-20.317-2.884-43.33-20.112-55.56c-14.276-10.414-33.356-13.313-50.36-9.033
		c-22.891,5.591-43.177,20.79-55.287,40.958c-7.03,11.838-11.564,25.639-10.388,39.54c0.852,13.464,6.937,26.604,17.011,35.646
		c12.42,11.354,30.097,15.831,46.606,13.901C110.99,156.871,126.041,149.581,138.49,139.384"/>
	<g clip-path="url(#SVGID_2_)">
		<defs>
			<rect id="SVGID_3_" x="0.25" y="0.25" width="227.162" height="199.434"/>
		</defs>
		<clipPath id="SVGID_4_">
			<use xlink:href="#SVGID_3_"  overflow="visible"/>
		</clipPath>
		<g clip-path="url(#SVGID_4_)">
			<defs>
				<rect id="SVGID_5_" x="0.25" y="0.25" width="227.162" height="199.434"/>
			</defs>
			<clipPath id="SVGID_6_">
				<use xlink:href="#SVGID_5_"  overflow="visible"/>
			</clipPath>
			<path clip-path="url(#SVGID_6_)" fill="#7BC254" d="M203.892,140.141c10.32,12.779,18.45,27.38,23.52,43.01
				c-15.32,0.04-30.63,0.25-45.94,0.31c-0.93-3.81-2.16-7.529-3.69-11.14C187.982,162.941,196.822,152.071,203.892,140.141"/>
			<path clip-path="url(#SVGID_6_)" fill="#7BC254" d="M208.992,62.141c5.37,23.11,0.47,47.701-10.53,68.43
				c-19.21,36.07-56.13,62.31-96.65,68.04c-23.4,3.29-48.48-0.83-68.08-14.51c-17.24-11.82-29.12-30.96-32.33-51.58
				c-4.05-24.549,2.89-49.93,15.96-70.77c21.02-33.46,57.66-57.12,97.14-60.99c21.29-2.08,43.63,2.11,61.62,14.03
				C192.622,25.571,204.651,42.901,208.992,62.141 M173.072,110.161c5.53-13.89,7.73-29.38,4.42-44.09
				c-3.37-15.96-13.76-30.25-27.88-38.4c-14.39-8.45-31.86-10.61-48.17-7.91c-25.56,4.24-48.8,19.68-63.47,40.93
				c-10.83,15.7-16.97,35.11-14.82,54.241c1.59,15.278,9.23,29.889,21.12,39.648c12.85,10.71,30.02,15.29,46.57,14.44
				c23.57-1.17,46.05-12.351,62.43-29.12c-14.78-14.11-30.9-26.99-48.7-37.13c6.02-6.89,12.29-13.55,18.65-20.11
				C141.072,89.351,157.912,98.601,173.072,110.161"/>
		</g>
	</g>
</g>
<g>
	<defs>
		<rect id="SVGID_7_" width="1030.911" height="199.934"/>
	</defs>
	<clipPath id="SVGID_8_">
		<use xlink:href="#SVGID_7_"  overflow="visible"/>
	</clipPath>
	<path clip-path="url(#SVGID_8_)" fill="#FFFFFF" d="M361.576,183.089h-23.664l-10.856-14.266c-2.923,1.577-6.194,2.76-9.814,3.55
		c-3.619,0.79-7.563,1.183-11.831,1.183c-5.801,0-11.356-0.765-16.669-2.296c-5.313-1.532-10.265-3.805-14.859-6.822
		c-7.284-4.871-13.003-11.217-17.156-19.035c-4.152-7.817-6.228-16.203-6.228-25.157c0-7.238,1.368-14.082,4.106-20.532
		c2.737-6.448,6.704-12.201,11.901-17.259c5.104-5.012,10.949-8.85,17.539-11.519c6.587-2.668,13.571-4.002,20.948-4.002
		c7.331,0,14.291,1.334,20.879,4.002c6.588,2.669,12.458,6.507,17.608,11.519c5.151,5.058,9.094,10.811,11.832,17.259
		c2.737,6.45,4.106,13.294,4.106,20.532c0,7.609-1.392,14.661-4.176,21.156c-2.783,6.497-6.867,12.18-12.249,17.053L361.576,183.089
		z M321.766,130.475l5.29,7.03c1.484-2.321,2.62-4.86,3.41-7.621c0.788-2.76,1.183-5.696,1.183-8.805
		c0-8.953-2.518-16.321-7.551-22.096c-5.036-5.777-11.404-8.665-19.105-8.665c-7.563,0-13.896,2.878-19,8.63
		c-5.104,5.754-7.656,12.899-7.656,21.436c0,8.723,2.529,15.938,7.587,21.645c5.056,5.706,11.459,8.56,19.208,8.56
		c1.067,0,2.169-0.126,3.306-0.382c1.137-0.254,2.355-0.638,3.654-1.148l-14.406-18.583H321.766z"/>
	<rect x="377.513" y="69.23" clip-path="url(#SVGID_8_)" fill="#FFFFFF" width="28.048" height="101.891"/>
	<polygon clip-path="url(#SVGID_8_)" fill="#FFFFFF" points="427.971,171.121 427.971,69.23 455.462,69.23 455.462,115.512 
		487.685,69.23 520.047,69.23 482.396,118.922 523.319,171.121 488.659,171.121 455.462,125.394 455.462,171.121 	"/>
	<path clip-path="url(#SVGID_8_)" fill="#FFFFFF" d="M600.084,73.197v30.344c-3.805-4.221-7.599-7.319-11.378-9.291
		c-3.782-1.972-7.83-2.958-12.146-2.958c-7.98,0-14.44,2.727-19.381,8.177c-4.944,5.452-7.414,12.562-7.414,21.333
		c0,8.167,2.518,14.939,7.553,20.32c5.034,5.384,11.447,8.076,19.242,8.076c4.315,0,8.363-0.987,12.146-2.959
		c3.779-1.973,7.573-5.092,11.378-9.362v30.415c-4.408,2.134-8.793,3.735-13.153,4.802c-4.36,1.068-8.769,1.602-13.222,1.602
		c-5.569,0-10.708-0.663-15.417-1.984s-9.038-3.329-12.979-6.02c-7.611-5.104-13.411-11.53-17.399-19.279
		c-3.991-7.748-5.986-16.469-5.986-26.168c0-7.795,1.264-14.881,3.794-21.261c2.527-6.379,6.343-12.168,11.447-17.365
		c4.826-4.964,10.268-8.675,16.32-11.136c6.057-2.458,12.796-3.688,20.221-3.688c4.453,0,8.861,0.534,13.222,1.601
		C591.291,69.463,595.676,71.063,600.084,73.197"/>
	<path clip-path="url(#SVGID_8_)" fill="#FFFFFF" d="M720.348,120.384c0,7.331-1.346,14.197-4.036,20.601
		c-2.691,6.402-6.612,12.136-11.762,17.189c-5.195,5.012-11.135,8.874-17.817,11.589c-6.681,2.713-13.618,4.07-20.81,4.07
		c-7.284,0-14.255-1.357-20.912-4.07c-6.66-2.715-12.519-6.577-17.573-11.589c-5.245-5.054-9.223-10.81-11.937-17.26
		c-2.714-6.447-4.071-13.292-4.071-20.53c0-7.284,1.357-14.138,4.071-20.566c2.714-6.425,6.691-12.168,11.937-17.225
		c5.055-5.012,10.913-8.874,17.573-11.588c6.657-2.715,13.628-4.072,20.912-4.072c7.238,0,14.209,1.357,20.915,4.072
		c6.703,2.714,12.605,6.576,17.712,11.588c5.104,5.011,9.013,10.741,11.727,17.19C718.992,106.232,720.348,113.1,720.348,120.384
		 M665.923,150.31c7.702,0,14.069-2.829,19.104-8.491c5.033-5.659,7.553-12.805,7.553-21.435c0-8.537-2.553-15.66-7.656-21.366
		c-5.105-5.708-11.438-8.561-19.001-8.561c-7.702,0-14.069,2.843-19.104,8.526c-5.034,5.684-7.55,12.817-7.55,21.401
		c0,8.723,2.48,15.892,7.443,21.505C651.68,147.504,658.082,150.31,665.923,150.31"/>
	<path clip-path="url(#SVGID_8_)" fill="#FFFFFF" d="M764.401,171.121L721.669,69.23h29.509l20.395,57
		c0.183,0.604,0.566,2.053,1.146,4.351c0.578,2.295,1.332,5.394,2.262,9.29c0.742-3.106,1.438-5.915,2.089-8.421
		c0.648-2.506,1.137-4.245,1.462-5.22l20.251-57h29.51L785.56,171.121H764.401z"/>
	<polygon clip-path="url(#SVGID_8_)" fill="#FFFFFF" points="836.575,171.121 836.575,69.23 899.004,69.23 899.004,91.571 
		863.646,91.571 863.646,109.248 896.984,109.248 896.984,131.101 863.646,131.101 863.646,148.292 899.004,148.292 
		899.004,171.121 	"/>
	<path clip-path="url(#SVGID_8_)" fill="#FFFFFF" d="M917.379,171.122V69.229h29.02c11.367,0,19.291,0.523,23.769,1.567
		c4.476,1.044,8.339,2.796,11.587,5.254c3.666,2.784,6.485,6.334,8.457,10.649c1.971,4.315,2.957,9.072,2.957,14.268
		c0,7.887-1.938,14.303-5.81,19.242c-3.876,4.941-9.526,8.226-16.946,9.849l27.766,41.063h-31.386l-23.385-39.879v39.879H917.379z
		 M943.407,117.392h5.149c5.987,0,10.359-1.021,13.12-3.062c2.759-2.041,4.141-5.243,4.141-9.605c0-5.103-1.287-8.734-3.862-10.892
		c-2.576-2.157-6.902-3.236-12.981-3.236h-5.566V117.392z"/>
	<path clip-path="url(#SVGID_8_)" fill="#FFFFFF" d="M998.211,69.043c0-2.165,0.422-4.257,1.271-6.275
		c0.847-2.018,2.065-3.822,3.655-5.413c1.533-1.532,3.26-2.688,5.183-3.469c1.922-0.781,3.995-1.171,6.219-1.171
		c2.254,0,4.379,0.412,6.375,1.237c1.995,0.825,3.774,2.041,5.336,3.646c1.516,1.532,2.673,3.274,3.469,5.225
		c0.794,1.952,1.193,4.026,1.193,6.22c0,2.254-0.409,4.368-1.228,6.341c-0.816,1.974-2.006,3.72-3.567,5.236
		c-1.591,1.547-3.381,2.733-5.369,3.558c-1.989,0.825-4.058,1.237-6.209,1.237c-2.165,0-4.245-0.423-6.241-1.27
		c-1.997-0.847-3.774-2.066-5.336-3.657c-1.547-1.561-2.726-3.322-3.536-5.281C998.615,73.248,998.211,71.194,998.211,69.043
		 M1000.64,69.043c0,1.842,0.348,3.598,1.039,5.269c0.693,1.673,1.694,3.171,3.005,4.497c1.325,1.34,2.828,2.372,4.508,3.093
		c1.68,0.722,3.402,1.083,5.171,1.083c1.914,0,3.729-0.346,5.446-1.039c1.716-0.692,3.259-1.708,4.627-3.049
		c1.312-1.266,2.321-2.729,3.028-4.385c0.707-1.658,1.061-3.407,1.061-5.248c0-1.959-0.335-3.782-1.005-5.469
		c-0.672-1.686-1.661-3.199-2.972-4.54c-1.371-1.355-2.898-2.386-4.585-3.093s-3.479-1.061-5.38-1.061
		c-1.901,0-3.668,0.335-5.303,1.005c-1.635,0.671-3.108,1.661-4.419,2.972c-1.355,1.385-2.397,2.932-3.127,4.64
		C1001.006,65.427,1000.64,67.202,1000.64,69.043 M1007.887,77.903V59.586h7.05c2.548,0,4.478,0.42,5.788,1.26
		c1.312,0.839,1.967,2.077,1.967,3.711c0,1.341-0.354,2.45-1.061,3.326c-0.707,0.877-1.716,1.455-3.026,1.735l4.087,8.285h-4.396
		l-3.624-7.645h-2.85v7.645H1007.887z M1011.821,67.828h2.585c1.473,0,2.548-0.225,3.226-0.674c0.677-0.449,1.017-1.16,1.017-2.132
		c0-1.017-0.354-1.764-1.061-2.243c-0.707-0.478-1.828-0.718-3.358-0.718h-2.408V67.828z"/>
</g>
</svg>
