<?xml version="1.0" encoding="utf-8"?>
<!-- Generator: Adobe Illustrator 16.0.4, SVG Export Plug-In . SVG Version: 6.00 Build 0)  -->
<!DOCTYPE svg PUBLIC "-//W3C//DTD SVG 1.1//EN" "http://www.w3.org/Graphics/SVG/1.1/DTD/svg11.dtd">
<svg version="1.1" id="Layer_1" xmlns="http://www.w3.org/2000/svg" xmlns:xlink="http://www.w3.org/1999/xlink" x="0px" y="0px"
	 width="2500px" height="729px" viewBox="0 0 2500 729" enable-background="new 0 0 2500 729" xml:space="preserve">
<g>
	<defs>
		<rect id="SVGID_1_" width="2500" height="729"/>
	</defs>
	<clipPath id="SVGID_2_">
		<use xlink:href="#SVGID_1_"  overflow="visible"/>
	</clipPath>
	<path clip-path="url(#SVGID_2_)" fill-rule="evenodd" clip-rule="evenodd" d="M512,568c0.333-159.984,0.667-320.016,1-480
		c9.333,0.333,18.667,0.667,28,1c21.998,4,44.002,8,66,12c75.301,22.709,133.721,66.084,170,128c32.12,54.817,30.329,129.961,4,188
		C740.598,506.061,640.845,568.403,512,568"/>
	<path clip-path="url(#SVGID_2_)" fill="none" stroke="#000000" stroke-width="3" stroke-miterlimit="10" d="M512,568
		c0.333-159.984,0.667-320.016,1-480c9.333,0.333,18.667,0.667,28,1c21.998,4,44.002,8,66,12c75.301,22.709,133.721,66.084,170,128
		c32.12,54.817,30.329,129.961,4,188C740.598,506.061,640.845,568.403,512,568z"/>
	<path clip-path="url(#SVGID_2_)" fill-rule="evenodd" clip-rule="evenodd" fill="#020202" d="M458,89
		c-0.333,159.651-0.667,319.35-1,479c-127.367,2.264-223.197-61.995-266-146c-24.481-48.047-30.584-121.379-7-176
		C222.826,156.078,327.847,88.464,458,89"/>
	<path clip-path="url(#SVGID_2_)" fill="none" stroke="#000000" stroke-width="3" stroke-miterlimit="10" d="M458,89
		c-0.333,159.651-0.667,319.35-1,479c-127.367,2.264-223.197-61.995-266-146c-24.481-48.047-30.584-121.379-7-176
		C222.826,156.078,327.847,88.464,458,89z"/>
	<path clip-path="url(#SVGID_2_)" fill-rule="evenodd" clip-rule="evenodd" d="M902,307c13.018-0.335,22.619,0.792,31,4
		c0.9,6.947,2.71,22.848,5,30v24c-0.002,39.125-3.922,69.292,23,82c4.173,1.97,16.552,5.482,25,3
		c43.492-12.778,12.533-100.678,30-140c9.405-2.4,29.565-6.893,35,3c7.297,5.501,7,52.545,7,67c-0.001,72.408-20.247,107.746-80,120
		c-13.471,2.763-32.304-6.49-40-11c-56.248-32.957-47.899-86.156-47-173C894.667,313,898.333,310,902,307"/>
	<path clip-path="url(#SVGID_2_)" fill="none" stroke="#000000" stroke-width="3" stroke-miterlimit="10" d="M902,307
		c13.018-0.335,22.619,0.792,31,4c0.9,6.947,2.71,22.848,5,30v24c-0.002,39.125-3.922,69.292,23,82c4.173,1.97,16.552,5.482,25,3
		c43.492-12.778,12.533-100.678,30-140c9.405-2.4,29.565-6.893,35,3c7.297,5.501,7,52.545,7,67c-0.001,72.408-20.247,107.746-80,120
		c-13.471,2.763-32.304-6.49-40-11c-56.248-32.957-47.899-86.156-47-173C894.667,313,898.333,310,902,307z"/>
	<path clip-path="url(#SVGID_2_)" fill-rule="evenodd" clip-rule="evenodd" d="M1212,307c15.194-0.364,21.528,2.771,31,6
		c1.8,10.654,9.228,17.645,14,25c9.551,14.719,11.985,31.138,20,47c11.265,22.294,44.343,67.594,41,96
		c-11.011,6.771-17.667,15.521-36,13c-13.965-25.217-26.749-56.164-42-81c-6.4-10.424-8.083-30.616-19-36
		c-4.791,13.858-49.472,111.339-56,115c-13.584,14.348-38.093-9.755-39-22c11.806-11.469,13.32-33.351,22-48
		c14.708-24.824,27.874-53.778,42-79c4.96-8.856,5.097-18.946,11-27C1203.766,312.226,1209.487,311.354,1212,307"/>
	<path clip-path="url(#SVGID_2_)" fill="none" stroke="#000000" stroke-width="3" stroke-miterlimit="10" d="M1212,307
		c15.194-0.364,21.528,2.771,31,6c1.8,10.654,9.228,17.645,14,25c9.551,14.719,11.985,31.138,20,47
		c11.265,22.294,44.343,67.594,41,96c-11.011,6.771-17.667,15.521-36,13c-13.965-25.217-26.749-56.164-42-81
		c-6.4-10.424-8.083-30.616-19-36c-4.791,13.858-49.472,111.339-56,115c-13.584,14.348-38.093-9.755-39-22
		c11.806-11.469,13.32-33.351,22-48c14.708-24.824,27.874-53.778,42-79c4.96-8.856,5.097-18.946,11-27
		C1203.766,312.226,1209.487,311.354,1212,307z"/>
	<path clip-path="url(#SVGID_2_)" fill-rule="evenodd" clip-rule="evenodd" d="M1511,405c-0.692-18.262-1.485-88.832,6-95
		c7.48-6.164,32.129-3.677,36,3c9.133,5.471,6.002,30.705,6,45c-0.005,41.319,8.653,109.939-9,136h-30
		c-6.186-3.057-7.902-10.586-12-16c-11.938-15.771-51.681-71.062-66-79c0.355,17.408,1.995,83.178-6,90
		c-8.211,10.848-29.69,4.562-39,0c-7.884-36.716-2.999-89.052-3-131c0-16.171-2.765-38.31,6-46c10.102-10.667,33.849-3.509,41,4
		C1454.604,330.282,1496.748,401.963,1511,405"/>
	<path clip-path="url(#SVGID_2_)" fill="none" stroke="#000000" stroke-width="3" stroke-miterlimit="10" d="M1511,405
		c-0.692-18.262-1.485-88.832,6-95c7.48-6.164,32.129-3.677,36,3c9.133,5.471,6.002,30.705,6,45c-0.005,41.319,8.653,109.939-9,136
		h-30c-6.186-3.057-7.902-10.586-12-16c-11.938-15.771-51.681-71.062-66-79c0.355,17.408,1.995,83.178-6,90
		c-8.211,10.848-29.69,4.562-39,0c-7.884-36.716-2.999-89.052-3-131c0-16.171-2.765-38.31,6-46c10.102-10.667,33.849-3.509,41,4
		C1454.604,330.282,1496.748,401.963,1511,405z"/>
	<path clip-path="url(#SVGID_2_)" fill-rule="evenodd" clip-rule="evenodd" d="M1810,310c1.889,10.52,2.771,20.51,0,31
		c-5.776,1.566-60.679,6.297-62,9c-12.834,11.66,11.395,137.041-11,142c-4.012,4.496-22.788,4.431-27,0
		c-14.268-5.147-9.422-108.418-9-134c-2.192-2.316-2.124-8.467-3-12c-19.744,0.273-44.761-0.247-61-5
		c-2.385-10.504-2.518-20.547,0-31C1684.896,302.313,1762.102,302.324,1810,310"/>
	<path clip-path="url(#SVGID_2_)" fill="none" stroke="#000000" stroke-width="3" stroke-miterlimit="10" d="M1810,310
		c1.889,10.52,2.771,20.51,0,31c-5.776,1.566-60.679,6.297-62,9c-12.834,11.66,11.395,137.041-11,142
		c-4.012,4.496-22.788,4.431-27,0c-14.268-5.147-9.422-108.418-9-134c-2.192-2.316-2.124-8.467-3-12
		c-19.744,0.273-44.761-0.247-61-5c-2.385-10.504-2.518-20.547,0-31C1684.896,302.313,1762.102,302.324,1810,310z"/>
	<path clip-path="url(#SVGID_2_)" fill-rule="evenodd" clip-rule="evenodd" d="M1900,307c15.811-0.388,23.646,2.195,33,6
		c-0.011,13.133,3.001,23.328,3,39c-0.001,42.229-8.063,113.38,47,98c30.346-8.476,25.006-56.056,25-95
		c-0.002-11.4-2.827-32.723,3-39c4.404-11.754,34.883-13.243,40-1c6.795,7.599,5,51.979,5,68c0,63.996-16.331,93.731-62,112
		c-5.61,2.244-19.07,7.105-27,5c-61.792-16.408-78.999-48.649-79-127C1888,340.471,1884.964,324.923,1900,307"/>
	<path clip-path="url(#SVGID_2_)" fill="none" stroke="#000000" stroke-width="3" stroke-miterlimit="10" d="M1900,307
		c15.811-0.388,23.646,2.195,33,6c-0.011,13.133,3.001,23.328,3,39c-0.001,42.229-8.063,113.38,47,98
		c30.346-8.476,25.006-56.056,25-95c-0.002-11.4-2.827-32.723,3-39c4.404-11.754,34.883-13.243,40-1c6.795,7.599,5,51.979,5,68
		c0,63.996-16.331,93.731-62,112c-5.61,2.244-19.07,7.105-27,5c-61.792-16.408-78.999-48.649-79-127
		C1888,340.471,1884.964,324.923,1900,307z"/>
	<path clip-path="url(#SVGID_2_)" fill-rule="evenodd" clip-rule="evenodd" d="M2151,307c10.453-0.611,24.328-0.278,28,6
		c18.575,11.698,42.982,68.902,62,72v-2c21.722-15.455,37.938-59.484,58-73c8.325-5.608,31.585-4.427,36,3
		c10.044,6.324,6,113.635,6,137c0,13.717,2.743,33.764-6,39c-5.966,11.606-30.314,3.793-38,0c-6.633-19.951,2.638-78.307-8-93h-1
		c-5.415,18.623-40.549,65.995-67,45c-14.329-11.374-19.378-34.8-36-44c0.373,29.712,3.756,72.382-6,94
		c-12.012,4.708-32.514,6.383-39-5c-8.412-15.549-3-105.533-3-132c0-14.001-2.901-35.615,6-41
		C2144.927,309.438,2147.93,309.154,2151,307"/>
	<path clip-path="url(#SVGID_2_)" fill="none" stroke="#000000" stroke-width="3" stroke-miterlimit="10" d="M2151,307
		c10.453-0.611,24.328-0.278,28,6c18.575,11.698,42.982,68.902,62,72v-2c21.722-15.455,37.938-59.484,58-73
		c8.325-5.608,31.585-4.427,36,3c10.044,6.324,6,113.635,6,137c0,13.717,2.743,33.764-6,39c-5.966,11.606-30.314,3.793-38,0
		c-6.633-19.951,2.638-78.307-8-93h-1c-5.415,18.623-40.549,65.995-67,45c-14.329-11.374-19.378-34.8-36-44
		c0.373,29.712,3.756,72.382-6,94c-12.012,4.708-32.514,6.383-39-5c-8.412-15.549-3-105.533-3-132c0-14.001-2.901-35.615,6-41
		C2144.927,309.438,2147.93,309.154,2151,307z"/>
	<path clip-path="url(#SVGID_2_)" fill-rule="evenodd" clip-rule="evenodd" d="M997,528h-5c-1.493,6.924-15.605,42.002-20,45
		c-1.8,2.042-0.015,0.707-3,2c-1-1.333-2-2.667-3-4c3.084-10.446,19.074-56.456,26-60v-2c2.667,1,5.333,2,8,3
		c1.733,22.759,22.97,38.859,19,63h-1l-1-2C1007.902,568.914,997.827,539.72,997,528"/>
	<path clip-path="url(#SVGID_2_)" fill="none" stroke="#000000" stroke-width="3" stroke-miterlimit="10" d="M997,528h-5
		c-1.493,6.924-15.605,42.002-20,45c-1.8,2.042-0.015,0.707-3,2c-1-1.333-2-2.667-3-4c3.084-10.446,19.074-56.456,26-60v-2
		c2.667,1,5.333,2,8,3c1.733,22.759,22.97,38.859,19,63h-1l-1-2C1007.902,568.914,997.827,539.72,997,528z"/>
	<path clip-path="url(#SVGID_2_)" fill-rule="evenodd" clip-rule="evenodd" d="M1307,511c12.506-0.558,24.755,3.271,28,12h-2
		c-2.118,2.165-3.443,1.993-8,2c-5.398-8.981-25.562-4.515-29,3c-17.794,12.275,1.107,36.208,10,42c4.333-0.333,8.667-0.667,13-1
		c6.641-3.027,8.413-7.567,7-16c-6.846-0.337-14.27-1.877-16-8c6.109-1.517,10.787-3.07,20-3c1.666,1.667,3.334,3.334,5,5v23
		c-27.825,12.78-41.311,11.545-53-17c-2.211-5.397-3.17-16.904,0-23C1287.48,519.46,1297.99,518.043,1307,511"/>
	<path clip-path="url(#SVGID_2_)" fill="none" stroke="#000000" stroke-width="3" stroke-miterlimit="10" d="M1307,511
		c12.506-0.558,24.755,3.271,28,12h-2c-2.118,2.165-3.443,1.993-8,2c-5.398-8.981-25.562-4.515-29,3
		c-17.794,12.275,1.107,36.208,10,42c4.333-0.333,8.667-0.667,13-1c6.641-3.027,8.413-7.567,7-16c-6.846-0.337-14.27-1.877-16-8
		c6.109-1.517,10.787-3.07,20-3c1.666,1.667,3.334,3.334,5,5v23c-27.825,12.78-41.311,11.545-53-17c-2.211-5.397-3.17-16.904,0-23
		C1287.48,519.46,1297.99,518.043,1307,511z"/>
	<path clip-path="url(#SVGID_2_)" fill-rule="evenodd" clip-rule="evenodd" d="M1528,550v20c12.21-0.203,26.8-0.389,36,2v6h-44
		c-2.223-6.916-6.871-54.536-1-61c4.025-9.403,27.752-6.591,41-6h1c0.333,1,0.667,2,1,3c2.078,2.023,1.364,1,2,5
		c-7.365,0.682-29.184-1.414-34,3h-2c-0.234,7.317,0.22,14.403,2,19c6.922,1.691,19.204,0.872,25,3c0.333,1,0.667,2,1,3
		C1549.114,549.543,1538.914,550.197,1528,550"/>
	<path clip-path="url(#SVGID_2_)" fill="none" stroke="#000000" stroke-width="3" stroke-miterlimit="10" d="M1528,550v20
		c12.21-0.203,26.8-0.389,36,2v6h-44c-2.223-6.916-6.871-54.536-1-61c4.025-9.403,27.752-6.591,41-6h1c0.333,1,0.667,2,1,3
		c2.078,2.023,1.364,1,2,5c-7.365,0.682-29.184-1.414-34,3h-2c-0.234,7.317,0.22,14.403,2,19c6.922,1.691,19.204,0.872,25,3
		c0.333,1,0.667,2,1,3C1549.114,549.543,1538.914,550.197,1528,550z"/>
	<path clip-path="url(#SVGID_2_)" fill-rule="evenodd" clip-rule="evenodd" d="M1723,542v6l-2,2h-25v20
		c12.974-0.797,34.737-4.324,36,8h-45c-0.32-11.215-1.977-60.799,3-64c5.18-5.807,32.188-3.903,41-2c0.333,2.333,0.667,4.667,1,7
		c-7.365,0.682-29.184-1.414-34,3h-2c-0.234,7.317,0.22,14.403,2,19C1706.332,541.333,1714.668,541.667,1723,542"/>
	<path clip-path="url(#SVGID_2_)" fill="none" stroke="#000000" stroke-width="3" stroke-miterlimit="10" d="M1723,542v6l-2,2h-25
		v20c12.974-0.797,34.737-4.324,36,8h-45c-0.32-11.215-1.977-60.799,3-64c5.18-5.807,32.188-3.903,41-2c0.333,2.333,0.667,4.667,1,7
		c-7.365,0.682-29.184-1.414-34,3h-2c-0.234,7.317,0.22,14.403,2,19C1706.332,541.333,1714.668,541.667,1723,542z"/>
	<path clip-path="url(#SVGID_2_)" fill-rule="evenodd" clip-rule="evenodd" d="M2173,542v6l-2,2c-7.486-0.504-20.155-1.703-23,3
		c-4.059,3.979-1.374,12.657,0,17c8.596-0.342,28.236-2.419,33,2c0.333,2,0.667,4,1,6h-45c-0.32-11.215-1.977-60.799,3-64
		c6.271-7.667,36.844-2.402,44,0l-2,2v3c-7.365,0.682-29.184-1.414-34,3h-2c-0.234,7.317,0.22,14.403,2,19
		C2156.332,541.333,2164.668,541.667,2173,542"/>
	<path clip-path="url(#SVGID_2_)" fill="none" stroke="#000000" stroke-width="3" stroke-miterlimit="10" d="M2173,542v6l-2,2
		c-7.486-0.504-20.155-1.703-23,3c-4.059,3.979-1.374,12.657,0,17c8.596-0.342,28.236-2.419,33,2c0.333,2,0.667,4,1,6h-45
		c-0.32-11.215-1.977-60.799,3-64c6.271-7.667,36.844-2.402,44,0l-2,2v3c-7.365,0.682-29.184-1.414-34,3h-2
		c-0.234,7.317,0.22,14.403,2,19C2156.332,541.333,2164.668,541.667,2173,542z"/>
	<path clip-path="url(#SVGID_2_)" fill-rule="evenodd" clip-rule="evenodd" d="M2327,520c-4.999-0.333-10.001-0.667-15-1
		c-1.666-1.333-3.334-2.667-5-4v-1c9.154-2.787,36.253-6.894,48-2c3.212,1.607,3.467,1.507,5,5h-2c-3.106,3.438-15.104,3.96-20,5v53
		c-2.666,1-5.334,2-8,3C2329,558.669,2328,539.331,2327,520"/>
	<path clip-path="url(#SVGID_2_)" fill="none" stroke="#000000" stroke-width="3" stroke-miterlimit="10" d="M2327,520
		c-4.999-0.333-10.001-0.667-15-1c-1.666-1.333-3.334-2.667-5-4v-1c9.154-2.787,36.253-6.894,48-2c3.212,1.607,3.467,1.507,5,5h-2
		c-3.106,3.438-15.104,3.96-20,5v53c-2.666,1-5.334,2-8,3C2329,558.669,2328,539.331,2327,520z"/>
	<path clip-path="url(#SVGID_2_)" fill-rule="evenodd" clip-rule="evenodd" d="M1095,517v8c-11.272-0.622-14.385-4.841-28-5
		c-13.2,15.603-15.635,11.059-14,38c4.666,4,9.334,8,14,12c14.145,0.188,17.767-4.29,28-6v8c-23.219,8.373-43.559,5.7-53-16
		c-9.696-22.285,11.968-42.443,28-42C1075.689,508.674,1088.46,515.721,1095,517"/>
	<path clip-path="url(#SVGID_2_)" fill="none" stroke="#000000" stroke-width="3" stroke-miterlimit="10" d="M1095,517v8
		c-11.272-0.622-14.385-4.841-28-5c-13.2,15.603-15.635,11.059-14,38c4.666,4,9.334,8,14,12c14.145,0.188,17.767-4.29,28-6v8
		c-23.219,8.373-43.559,5.7-53-16c-9.696-22.285,11.968-42.443,28-42C1075.689,508.674,1088.46,515.721,1095,517z"/>
	<path clip-path="url(#SVGID_2_)" fill-rule="evenodd" clip-rule="evenodd" d="M1139,514c5.408,0.125,4.987-0.654,7,3
		c6.441,7.039,0.497,53.158-1,61h-5c-5.376-14.962-3.185-42.133-3-62C1137.667,515.333,1138.333,514.667,1139,514"/>
	<path clip-path="url(#SVGID_2_)" fill="none" stroke="#000000" stroke-width="3" stroke-miterlimit="10" d="M1139,514
		c5.408,0.125,4.987-0.654,7,3c6.441,7.039,0.497,53.158-1,61h-5c-5.376-14.962-3.185-42.133-3-62
		C1137.667,515.333,1138.333,514.667,1139,514z"/>
	<path clip-path="url(#SVGID_2_)" fill-rule="evenodd" clip-rule="evenodd" d="M1232,514h8v64h-8c-2.715-7.606-26.65-40.91-34-42
		c0.259,14.804,0.219,31.499-3,42h-5c-2.009-17.439-4.399-46.714,0-64h8c1.665,6.806,26.929,40.756,33,42
		C1231.333,542.001,1231.667,527.999,1232,514"/>
	<path clip-path="url(#SVGID_2_)" fill="none" stroke="#000000" stroke-width="3" stroke-miterlimit="10" d="M1232,514h8v64h-8
		c-2.715-7.606-26.65-40.91-34-42c0.259,14.804,0.219,31.499-3,42h-5c-2.009-17.439-4.399-46.714,0-64h8
		c1.665,6.806,26.929,40.756,33,42C1231.333,542.001,1231.667,527.999,1232,514z"/>
	<path clip-path="url(#SVGID_2_)" fill-rule="evenodd" clip-rule="evenodd" d="M1595,514c13.288,0.822,23.744,32.693,25,45
		c5.224-0.419,3.982,0.656,6-3c6.333-13.999,12.667-28.001,19-42h6c0.092,12.538-21.377,62.302-30,64
		C1614.246,557.151,1596.735,537.555,1595,514"/>
	<path clip-path="url(#SVGID_2_)" fill="none" stroke="#000000" stroke-width="3" stroke-miterlimit="10" d="M1595,514
		c13.288,0.822,23.744,32.693,25,45c5.224-0.419,3.982,0.656,6-3c6.333-13.999,12.667-28.001,19-42h6
		c0.092,12.538-21.377,62.302-30,64C1614.246,557.151,1596.735,537.555,1595,514z"/>
	<path clip-path="url(#SVGID_2_)" fill-rule="evenodd" clip-rule="evenodd" d="M1771,514h8c-0.377,13.773-4.214,47.077,3,55
		c7.785,2.958,23.006,0.486,30,3c0.333,2,0.667,4,1,6c-9.802,0.332-34.395,3.141-40-2h-2V514z"/>
	<path clip-path="url(#SVGID_2_)" fill="none" stroke="#000000" stroke-width="3" stroke-miterlimit="10" d="M1771,514h8
		c-0.377,13.773-4.214,47.077,3,55c7.785,2.958,23.006,0.486,30,3c0.333,2,0.667,4,1,6c-9.802,0.332-34.395,3.141-40-2h-2V514z"/>
	<path clip-path="url(#SVGID_2_)" fill-rule="evenodd" clip-rule="evenodd" d="M2031,514c3.333,0.667,6.667,1.333,10,2
		c4.378,12.571,12.553,34.576,22,43h4c1.923-17.209,15.663-28.993,20-45h8v64h-6l-2-2c-0.333-11.332-0.667-22.668-1-34h-5
		c-0.578,11.102-9.223,31.793-20,33c-5.734-10.291-13.207-21.229-17-33h-2c-1,11.999-2,24.001-3,36h-5
		C2027.7,563.353,2030.838,533.795,2031,514"/>
	<path clip-path="url(#SVGID_2_)" fill="none" stroke="#000000" stroke-width="3" stroke-miterlimit="10" d="M2031,514
		c3.333,0.667,6.667,1.333,10,2c4.378,12.571,12.553,34.576,22,43h4c1.923-17.209,15.663-28.993,20-45h8v64h-6l-2-2
		c-0.333-11.332-0.667-22.668-1-34h-5c-0.578,11.102-9.223,31.793-20,33c-5.734-10.291-13.207-21.229-17-33h-2
		c-1,11.999-2,24.001-3,36h-5C2027.7,563.353,2030.838,533.795,2031,514z"/>
	<path clip-path="url(#SVGID_2_)" fill-rule="evenodd" clip-rule="evenodd" d="M2221,514h8c5.916,14.563,21.626,30.68,32,42
		c0.667-0.333,1.333-0.667,2-1c-0.137-14.193,0.519-29.677,2-41c5.224,0.419,3.982-0.656,6,3c5.797,6.339,1.986,54.023,0,61h-6
		c-2.613-7.801-27.745-40.979-36-42c0.332,9.802,3.141,34.395-2,40v2h-4l-2-2V514z"/>
	<path clip-path="url(#SVGID_2_)" fill="none" stroke="#000000" stroke-width="3" stroke-miterlimit="10" d="M2221,514h8
		c5.916,14.563,21.626,30.68,32,42c0.667-0.333,1.333-0.667,2-1c-0.137-14.193,0.519-29.677,2-41c5.224,0.419,3.982-0.656,6,3
		c5.797,6.339,1.986,54.023,0,61h-6c-2.613-7.801-27.745-40.979-36-42c0.332,9.802,3.141,34.395-2,40v2h-4l-2-2V514z"/>
	<path clip-path="url(#SVGID_2_)" fill-rule="evenodd" clip-rule="evenodd" d="M933,536c-0.496-9.803-4.026-11.483-6-19
		c-13.252-3.475-21.091-5.13-36-3v62h2v2h6c0.516-5.332-0.123-18.641,3-22v-3h9c5.86,7.58,10.266,23.582,22,25
		c-0.028-13.037-5.403-18.586-11-26C926.368,547.212,929.787,542.035,933,536 M902,544c-0.995-5.506-4.595-16.331,0-21v-3
		c10.583-0.094,13.45,2.402,20,5C923.093,541.137,917.677,545.007,902,544"/>
	<path clip-path="url(#SVGID_2_)" fill="none" stroke="#000000" stroke-width="3" stroke-miterlimit="10" d="M933,536
		c-0.496-9.803-4.026-11.483-6-19c-13.252-3.475-21.091-5.13-36-3v62h2v2h6c0.516-5.332-0.123-18.641,3-22v-3h9
		c5.86,7.58,10.266,23.582,22,25c-0.028-13.037-5.403-18.586-11-26C926.368,547.212,929.787,542.035,933,536z M902,544
		c-0.995-5.506-4.595-16.331,0-21v-3c10.583-0.094,13.45,2.402,20,5C923.093,541.137,917.677,545.007,902,544z"/>
	<path clip-path="url(#SVGID_2_)" fill-rule="evenodd" clip-rule="evenodd" d="M1430,511c-4.098,9.705-8.936,48.494-2,65v2
		C1494.979,580.621,1493.468,508.429,1430,511 M1453,569c-5.666,0.333-11.334,0.667-17,1c-0.151-15.487-2.477-37.993,2-50
		c22.141-0.422,20.998,8.423,31,19C1469.627,555.771,1463.682,563.952,1453,569"/>
	<path clip-path="url(#SVGID_2_)" fill="none" stroke="#000000" stroke-width="3" stroke-miterlimit="10" d="M1430,511
		c-4.098,9.705-8.936,48.494-2,65v2C1494.979,580.621,1493.468,508.429,1430,511z M1453,569c-5.666,0.333-11.334,0.667-17,1
		c-0.151-15.487-2.477-37.993,2-50c22.141-0.422,20.998,8.423,31,19C1469.627,555.771,1463.682,563.952,1453,569z"/>
	<path clip-path="url(#SVGID_2_)" fill-rule="evenodd" clip-rule="evenodd" d="M1877,512c-12.497,6.116-22.35,6.438-28,19
		c-10.678,23.742,12.103,58.881,42,47C1922.969,565.296,1919.482,511.364,1877,512 M1902,559c-10.681,4.527-10.943,11.357-29,11
		c-28.859-19.184-18.084-32.256,1-50c8.533-0.354,16.273,0.524,20,5C1907.269,530.624,1903.562,545.6,1902,559"/>
	<path clip-path="url(#SVGID_2_)" fill="none" stroke="#000000" stroke-width="3" stroke-miterlimit="10" d="M1877,512
		c-12.497,6.116-22.35,6.438-28,19c-10.678,23.742,12.103,58.881,42,47C1922.969,565.296,1919.482,511.364,1877,512z M1902,559
		c-10.681,4.527-10.943,11.357-29,11c-28.859-19.184-18.084-32.256,1-50c8.533-0.354,16.273,0.524,20,5
		C1907.269,530.624,1903.562,545.6,1902,559z"/>
	<path clip-path="url(#SVGID_2_)" fill-rule="evenodd" clip-rule="evenodd" d="M1989,517c-4.113-7.355-19.141-6.651-31-6
		c-0.667,1-1.333,2-2,3c-6.516,4.14-2.223,55.579-1,64h6c1-7.333,2-14.667,3-22c21.366,0.432,22.191-5.759,33-14
		C1997.611,529.995,1997.103,520.349,1989,517 M1980,545c-2.788,2.732-10.264,2.36-16,2c-2.729-26.368-0.229-30.374,22-22
		C1986.715,535.031,1987.007,542.254,1980,545"/>
	<path clip-path="url(#SVGID_2_)" fill="none" stroke="#000000" stroke-width="3" stroke-miterlimit="10" d="M1989,517
		c-4.113-7.355-19.141-6.651-31-6c-0.667,1-1.333,2-2,3c-6.516,4.14-2.223,55.579-1,64h6c1-7.333,2-14.667,3-22
		c21.366,0.432,22.191-5.759,33-14C1997.611,529.995,1997.103,520.349,1989,517z M1980,545c-2.788,2.732-10.264,2.36-16,2
		c-2.729-26.368-0.229-30.374,22-22C1986.715,535.031,1987.007,542.254,1980,545z"/>
	<path clip-path="url(#SVGID_2_)" fill-rule="evenodd" clip-rule="evenodd" fill="#43B4E7" d="M998.388,682.722
		c-0.971-2.688-9.737-7.106-10.834-5.575c-4.12-0.111-4.157-2.129-6.501-3.833c-2.066-1.502-3.979-0.471-6.5-1.742
		c-4.058-2.047-8.645-7.197-13.311-8.362c-9.759-2.437-21.032-11.048-30.336-17.423c-12.849-8.803-28.272-12.858-39.932-22.997
		c-1.341-1.857-2.683-3.717-4.024-5.575c-6.883-5.784-14.924-8.877-21.359-14.982c-2.572-2.44-5.059-7.304-8.977-8.015v-1.045
		c6.088,1.351,10.092,5.524,17.954,5.575c-0.197-1.394,0.024-1.037-0.619-1.742c-2.167-4.024-11.375-7.836-14.858-11.15
		c-7.949-7.564-16.948-13.743-26.003-20.21c-3.6-2.571-8.435-2.791-11.763-5.575c-1.258-1.052-1.944-3.322-3.095-4.529
		c-2.03-2.13-5.296-2.508-7.429-4.53c-2.988-2.831-5.927-6.79-8.977-9.407c-4.839-4.153-11.556-6.335-15.478-11.499
		c0.722-0.116,1.445-0.232,2.167-0.349c-0.808-5.445-7.528-6.636-9.906-10.453c-0.799-1.284-0.445-2.652-1.548-3.484
		c-2.166-0.929-4.333-1.858-6.5-2.788c-11.843-9.316-25.277-17.778-38.384-25.784c-6.069-3.707-15.858-4.648-20.431-10.105
		c-3.012-0.223-5.113-0.38-5.881,2.091c-4.905-0.667-8.929-5.062-12.382-7.665c-2.682-0.581-5.366-1.162-8.048-1.742
		c-3.313-1.817-5.98-5.324-8.977-7.317c-3.066-2.039-5.529-2.092-8.977-3.833c-2.167-1.858-4.334-3.717-6.501-5.575
		c-15.224-6.534-28.997-15.64-42.717-23.694c-3.996-2.345-7.048-1.243-10.525-3.136c-2.683-1.742-5.366-3.484-8.049-5.227
		c-3.913-1.581-7.46,1.742-9.286-2.091c-2.704,0.188-6.089,1.642-7.12,3.833c-0.103,1.045-0.206,2.091-0.31,3.136
		c1.763,2.156,4.463,2.63,6.501,4.53c3.043,2.836,4.375,9.07,9.287,8.711c0.206-0.232,0.412-0.465,0.619-0.697
		c0.966,1.363,1.892,1.522,2.476,3.484c0.413,0.116,0.825,0.232,1.239,0.349l1.237-0.349c-0.3-4.667-2.449-4.761-2.476-10.104
		c12.336,1.521,23.413,10.998,32.812,16.725c3.914,2.385,7.567,2.146,11.454,4.53c13.304,8.161,26.992,17.832,40.241,25.785
		c1.341,0.348,2.683,0.696,4.025,1.045c4.286,2.853,17.564,25.775,21.358,22.997c2.251,0.019,2.642,0.455,4.025,1.046v1.742
		c4.493,0.765,8.653,5.038,11.453,8.014c4.677,4.97,12.381,6.961,18.264,10.453c1.419,0.843,2.584,3.511,4.024,4.53
		c3.999,2.831,7.633,1.586,8.667,8.014c-7.699-3.677-13.975-8.893-21.049-12.544c-2.908-1.5-5.436-1.156-7.429-3.484
		c-0.826-0.116-1.652-0.232-2.477-0.349c0.727,2.119,4.413,4.379,6.5,4.879v2.438c-3.98-1.854-4.59-2.908-8.977-2.438
		c0.207,0.812,0.413,1.626,0.62,2.438c-0.723-0.58-1.445-1.161-2.167-1.742c-0.206-0.116-0.413-0.232-0.619-0.349
		c0.413-0.231,0.825-0.464,1.238-0.696v-0.697c-4.644-2.89-8.168-7.588-14.549-6.62c-0.533-3.325-10.657-9.868-12.692-9.06
		c-3.636-0.557-2.356-3.119-4.643-4.529c-1.031-0.116-2.064-0.232-3.095-0.349c-7.379-4.955-16.093-9.751-23.836-14.286
		c-2.258-1.323-10.507-5.351-11.453-3.833c-3.345-1.027-3.439-4.186-5.881-5.575c-3.588-2.041-8.013-4.085-11.144-5.575h-4.643
		c-0.104-0.232-0.207-0.465-0.31-0.697c-1.125-0.754-0.913-1.886-1.857-2.787c-1.102-1.951-18.036-8.791-21.05-10.453
		c-3.208-1.771-7.342-4.46-10.215-6.272h-3.714c-2.27-1.857-4.541-3.717-6.81-5.575c-2.064-0.348-4.128-0.696-6.192-1.045
		c-7.215-4.295-13.942-12.805-21.668-16.377c-2.151-0.994-4.596,0.811-5.572,1.046c-1.668,0.401-13.93-2.091-13.93-2.091h-0.928
		c0.27,1.712-0.229,1.047,0.928,1.742v1.742c-0.516-0.116-1.031-0.232-1.548-0.349c-0.103,0.349-0.206,0.698-0.309,1.045
		c3.287,5.844,23.898,14.162,30.645,18.119v1.395c-3.837,1.626-6.44,0.588-10.834,0.348c0.537,1.865,0.991,3.306,0.929,6.272
		l-4.024-0.697c0.302,2.695,1.334,4.213,2.167,6.272c-0.634,0.7-0.441,0.345-0.619,1.742c-0.413,0.117-0.826,0.232-1.239,0.349
		c-1.665-1.386-3.986-3.096-4.643-5.575l-1.238-0.349h-0.31c0.534,4.952,4.701,5.376,6.501,8.711
		c1.543,2.859,2.032,5.635,3.405,8.015h1.547c-0.379-1.323-0.624-1.765-1.547-2.439v-1.046c2.72,0.797,2.745-0.005,4.953-1.045
		l2.166,5.575c1.002,2.949,1.263,0.266,3.406,1.742c3.627,2.5,6.434,8.234,9.905,11.15c3.326,2.793,12.737,7.389,14.859,10.453
		c-0.856,0.791-1.897,0.769-3.096,0.349c-1.132,0.768-0.971,0.204-1.238,2.091c4.162-0.027,5.776-1.481,7.429-1.742
		c5.118,2.434,16.783,7.122,18.883,12.892h1.548c0.309-1.277,0.618-2.554,0.928-3.833c3.214,0.584,4.177,2.65,8.048,2.788
		c0.563,1.23-0.18,0.425,0.929,1.045v1.742c3.404,0.723,11.276,4.257,13.001,7.317c1.225-0.476,1.308-0.538,1.857-1.742
		c5.126,2.674,10.414,9.165,16.097,10.105c0.138,2.703-2.361,6.729-4.024,8.711c2.39,6.438,1.531,11.856,7.429,15.331v1.742
		c4.872,0.912,5.493,5.188,8.977,7.317v1.742c-7.959,1.234-21.297-7.029-24.454-12.544c-3.488-0.293-4.17,2.648-6.501,4.53
		c0.493,6.543,9.628,10.096,11.453,13.589v3.833c0.722,1.161,1.445,2.323,2.167,3.484c1.159-0.726,1.034-1.459,0.929-3.484
		c1.032,0.349,2.063,0.697,3.095,1.045l0.929,6.272c11.833-1.14,38.918,22.8,49.219,30.314c4.223,3.081,10.257,2.974,13.929,6.62
		c0.31,0.93,0.619,1.858,0.929,2.788c2.26,3.007,6.29,5.833,8.977,8.362c11.027,10.378,25.271,15.64,37.455,24.739
		c0.929,1.162,1.858,2.323,2.786,3.484c2.889,1.626,5.779,3.253,8.668,4.879c1.175,1.167,1.982,3.661,3.405,4.529
		c11.781,7.19,22.794,14.164,33.741,21.952c16.063,11.429,38.973,19.815,47.361,39.723c1.41-0.003,1.821,0.057,2.476-0.697
		c0.948-0.727,1.296-2.438,1.548-3.833c1.96,0.349,3.921,0.697,5.881,1.046c0.046-2.014,0.481-3.647,1.548-4.53
		c1.135,0.232,2.27,0.465,3.406,0.697c1.559-0.725,1.406-2.399,4.023-2.788v-1.742c-5.238-0.227-13.25-1.89-17.335-5.575
		c-2.372-3.02-4.746-6.04-7.119-9.06c-5.569-4.647-12.319-7.377-17.954-12.195c-1.332-1.139-2.172-3.468-3.715-4.529
		c-21.062-14.496-41.904-27.935-62.838-42.162c-9.427-6.406-19.145-10.977-27.86-17.771c-4.523-3.526-10.393-4.46-14.549-8.362
		c-2.859-2.686-3.305-7.813-6.5-10.104v-1.743h0.619c1.714-1.253,7.629,3.277,9.596,4.53c9.527,6.069,19.503,9.705,28.169,16.377
		c6.833,5.26,14.938,7.108,21.978,12.195c15.518,11.211,33.464,19.331,48.29,31.36c11.909,9.661,20.598,26.186,37.765,25.784
		c0.516-3.368,1.032-6.736,1.548-10.104c1.685-0.536,2.414-0.711,4.024,0c0.582-1.447,0.957-2.049,0.929-4.53
		c2.906-0.198,5.917-1.833,5.881-6.271l0.929-0.349c5.239,0.612,11.41,6.407,15.168,9.408c2.077,1.658,4.247,0.472,6.81,1.742
		c5.963,2.957,11.645,9.211,17.025,12.893c1.95,1.334,4.16,1.29,5.882,2.787c1.627,1.415,9.946,9.717,11.143,10.104
		c0.151,1.713-0.379,2.628,0.31,3.833c0.736,0.863,2.779,1.575,4.024,1.742v-1.742l3.095,0.697c0.104-1.858,0.207-3.717,0.31-5.575
		h2.167c0.619-3.02,1.238-6.04,1.857-9.06c1.239,0.222,0.922-0.027,1.548,0.697c1.422,0.937,1.688,2.586,1.857,4.878h1.238
		c0.104-4.064,0.207-8.131,0.31-12.195c0.6-1.747,1.499-2.024,1.548-5.227c-1.509-0.094-1.786-0.106-2.477-1.046
		c-1.279-1.391-1.065-5.481-0.928-8.362c-11.291-3.223-17.288-14.381-26.931-18.468v-1.742c-4.042-0.903-5.819-4.806-9.906-5.575
		v-4.529c0.207-0.116,0.413-0.232,0.619-0.349l1.858,0.349c-0.622-3.358-6.769-6.773-8.977-8.711v-0.349
		c9.805,2.917,18.02,11.021,25.383,17.073c1.235,1.016,3.801,2.527,4.953,3.137c1.341-0.115,2.683-0.232,4.024-0.349
		c0.928,1.51,1.857,3.02,2.786,4.529c2.655,2.354,6.931,2.075,9.596,4.182c2.519,1.991,4.978,5.17,7.429,6.969
		c2.373,1.277,4.747,2.556,7.12,3.833c1.015,1.05,0.653,2.869,1.857,3.833c0.103,0.232,0.207,0.465,0.31,0.696
		c0.206-0.58,0.412-1.161,0.619-1.742c1.153,0.667,2.067,2.285,3.095,2.788c1.776,0.868,3.725-0.502,4.953,0.696
		c3.072-0.54,4.217-2.812,6.501-4.181c-0.099-2.307-0.481-2.417-1.548-3.484v-0.349c2.214,0.436,3.89,2.825,4.952,4.529
		c1.919-0.436,1.524-1.055,3.096-1.742C999.005,683.922,999.058,683.459,998.388,682.722 M710.197,500.138
		c-2.786-2.787-5.573-5.576-8.358-8.363v-1.742h-2.476v-2.787h2.476c0.551,1.351,7.194,10.601,8.358,11.15V500.138z M563.47,468.777
		h-1.548c-0.103-0.465-0.206-0.928-0.309-1.394v-0.349h1.857V468.777z M574.923,475.397c-0.206,0.232-0.412,0.465-0.619,0.697
		h-1.857c-0.826-1.394-1.651-2.788-2.476-4.182c0.103-0.116,0.206-0.231,0.309-0.348h1.548c1.032,0.929,2.063,1.858,3.095,2.787
		V475.397z M673.36,540.557c-2.546,0.07-4.087-0.605-4.952-2.439h-0.929c0.206,0.813,0.412,1.627,0.619,2.439
		c-1.032-0.232-2.064-0.465-3.096-0.696v1.742h-1.547c-0.494-1.543-1.331-2.994-2.477-3.833v-1.395
		c2.167,0.465,4.334,0.93,6.501,1.395v-0.349c-4.127-2.903-8.255-5.808-12.382-8.711c-0.207-0.116-0.413-0.232-0.619-0.349v-0.349
		c5.466,0.359,17.876,5.752,20.43,9.06h0.619C675.159,539.541,674.435,539.129,673.36,540.557 M683.885,541.603h-1.857
		c-0.207-0.465-0.413-0.93-0.62-1.395c0.826-0.116,1.651-0.233,2.477-0.348V541.603z M701.839,600.489
		c-4.268,0.283-11.884-5.977-13.93-9.757c6.077,1.766,9.938,4.256,13.93,8.015V600.489z M706.482,603.625
		c-0.829,0.704-2.501-1.17-3.715-2.091c0.207-1.161,0.413-2.323,0.62-3.484c0.825,0.232,1.65,0.465,2.476,0.697
		c0.321,1.35,0.108,1.05,0.929,1.742C706.688,601.534,706.585,602.58,706.482,603.625 M721.65,539.86
		c-14.189-0.924-13.747-14.45-22.907-19.165c-6.085-3.133-17.126-0.905-19.811,4.182c-5.425-0.92-8.895-5.982-13.311-8.015
		c-1.547-0.116-3.095-0.232-4.643-0.348c-1.896-1.32-3.752-3.973-5.881-5.228c-3.837-2.261-7.953-2.269-12.073-4.529
		c-10.726-5.887-26.331-15.165-34.669-24.043c0.103-0.348,0.206-0.696,0.309-1.045v-0.697h5.572c3.45,1.802,5.957,5.939,8.977,8.015
		c5.287,3.632,11.741,3.169,15.478,8.363h0.928c-0.535-4.072-16.877-19.487-20.43-20.211c0.309-0.58,0.619-1.161,0.928-1.742
		c9.321,1.698,18.167,9.473,26.003,13.59c16.889,8.873,35.814,16.972,51.076,27.875c8.657,6.186,15.523,15.774,24.454,21.255V539.86
		z M776.44,659.726c2.521,0.408,3.752,1.845,5.572,3.135C780.309,663.479,777.41,661.128,776.44,659.726 M776.44,659.376
		c-0.924-0.451-0.371,0.015-0.928-0.697C776.436,659.13,775.883,658.664,776.44,659.376 M760.963,534.981l2.167,0.349
		c0.278,1.567,0.716,2.837,1.857,3.484v1.742h-0.929C762.793,538.692,760.597,537.71,760.963,534.981 M742.7,535.33
		c0.923,0.451,0.371-0.015,0.928,0.697C742.704,535.576,743.257,536.042,742.7,535.33 M747.652,539.86h-2.166
		c-0.104-0.93-0.207-1.859-0.31-2.788h-1.548v-0.349v-0.349c2.257,0.377,2.513,1.408,4.024,2.439V539.86z M754.153,541.603
		c4.352,0.291,6.926,3.597,9.905,5.574v1.046C760.491,547.982,755.325,544.507,754.153,541.603 M793.466,584.112
		c-3.17-0.509-26.479-13.524-28.479-15.679c-0.779-0.842-3.766-8.357-4.333-9.758v-0.349c5.677,0.225,9.254,4.831,13.001,7.666
		c-0.413,0.696-0.826,1.394-1.239,2.091c4.625,3.042,9.988,5.292,14.549,8.711c2.16,1.619,4.036,4.283,6.501,5.575V584.112z
		 M817.301,598.747c-2.888-0.604-19.841-10.653-21.359-12.893h-0.619c0.231-1.722,0.309-1.434,0.929-2.439
		c8.228,2.059,13.494,10.415,21.049,13.59V598.747z M834.326,582.021c-10.085-1.569-15.184-12.51-23.525-15.68V564.6h1.547
		c5.565,6.712,14.232,12.314,21.978,16.377V582.021z M850.733,595.263v0.696h-1.239c-0.722-0.812-1.444-1.626-2.167-2.438
		c0.103-0.116,0.207-0.232,0.31-0.349h2.477c0.206,0.349,0.412,0.696,0.619,1.045V595.263z M908.309,644.741
		c-1.998-0.61-10.463-7.713-10.835-9.757c4.552,1.541,6.642,6.084,10.835,8.015V644.741z M910.785,645.786h0.62
		c0.618,0.814,1.238,1.627,1.857,2.439c-0.104,0.349-0.207,0.697-0.31,1.046l-2.167-0.697V645.786z M916.357,661.467v1.045
		c-1.467-0.417-1.326-0.305-1.857-1.742L916.357,661.467z M921.929,665.996c1.651,1.858,3.302,3.717,4.953,5.575
		c0.103,0.929,0.206,1.858,0.309,2.788c-1.14-0.478-1.3-0.669-1.857-1.742h-0.928c0.767,3.03,2.803,3.384,3.714,6.271
		c0.538,1.06,0.039,0.929-0.31,2.787c-6.556-2.624-9.747-11.036-16.405-13.938c0.103-0.929,0.206-1.858,0.309-2.787
		C914.826,665.49,919.422,664.434,921.929,665.996"/>
	<path clip-path="url(#SVGID_2_)" fill="none" stroke="#43B4E7" stroke-width="3" stroke-miterlimit="10" d="M998.388,682.722
		c-0.971-2.688-9.737-7.106-10.834-5.575c-4.12-0.111-4.157-2.129-6.501-3.833c-2.066-1.502-3.979-0.471-6.5-1.742
		c-4.058-2.047-8.645-7.197-13.311-8.362c-9.759-2.437-21.032-11.048-30.336-17.423c-12.849-8.803-28.272-12.858-39.932-22.997
		c-1.341-1.857-2.683-3.717-4.024-5.575c-6.883-5.784-14.924-8.877-21.359-14.982c-2.572-2.44-5.059-7.304-8.977-8.015v-1.045
		c6.088,1.351,10.092,5.524,17.954,5.575c-0.197-1.394,0.024-1.037-0.619-1.742c-2.167-4.024-11.375-7.836-14.858-11.15
		c-7.949-7.564-16.948-13.743-26.003-20.21c-3.6-2.571-8.435-2.791-11.763-5.575c-1.258-1.052-1.944-3.322-3.095-4.529
		c-2.03-2.13-5.296-2.508-7.429-4.53c-2.988-2.831-5.927-6.79-8.977-9.407c-4.839-4.153-11.556-6.335-15.478-11.499
		c0.722-0.116,1.445-0.232,2.167-0.349c-0.808-5.445-7.528-6.636-9.906-10.453c-0.799-1.284-0.445-2.652-1.548-3.484
		c-2.166-0.929-4.333-1.858-6.5-2.788c-11.843-9.316-25.277-17.778-38.384-25.784c-6.069-3.707-15.858-4.648-20.431-10.105
		c-3.012-0.223-5.113-0.38-5.881,2.091c-4.905-0.667-8.929-5.062-12.382-7.665c-2.682-0.581-5.366-1.162-8.048-1.742
		c-3.313-1.817-5.98-5.324-8.977-7.317c-3.066-2.039-5.529-2.092-8.977-3.833c-2.167-1.858-4.334-3.717-6.501-5.575
		c-15.224-6.534-28.997-15.64-42.717-23.694c-3.996-2.345-7.048-1.243-10.525-3.136c-2.683-1.742-5.366-3.484-8.049-5.227
		c-3.913-1.581-7.46,1.742-9.286-2.091c-2.704,0.188-6.089,1.642-7.12,3.833c-0.103,1.045-0.206,2.091-0.31,3.136
		c1.763,2.156,4.463,2.63,6.501,4.53c3.043,2.836,4.375,9.07,9.287,8.711c0.206-0.232,0.412-0.465,0.619-0.697
		c0.966,1.363,1.892,1.522,2.476,3.484c0.413,0.116,0.825,0.232,1.239,0.349l1.237-0.349c-0.3-4.667-2.449-4.761-2.476-10.104
		c12.336,1.521,23.413,10.998,32.812,16.725c3.914,2.385,7.567,2.146,11.454,4.53c13.304,8.161,26.992,17.832,40.241,25.785
		c1.341,0.348,2.683,0.696,4.025,1.045c4.286,2.853,17.564,25.775,21.358,22.997c2.251,0.019,2.642,0.455,4.025,1.046v1.742
		c4.493,0.765,8.653,5.038,11.453,8.014c4.677,4.97,12.381,6.961,18.264,10.453c1.419,0.843,2.584,3.511,4.024,4.53
		c3.999,2.831,7.633,1.586,8.667,8.014c-7.699-3.677-13.975-8.893-21.049-12.544c-2.908-1.5-5.436-1.156-7.429-3.484
		c-0.826-0.116-1.652-0.232-2.477-0.349c0.727,2.119,4.413,4.379,6.5,4.879v2.438c-3.98-1.854-4.59-2.908-8.977-2.438
		c0.207,0.812,0.413,1.626,0.62,2.438c-0.723-0.58-1.445-1.161-2.167-1.742c-0.206-0.116-0.413-0.232-0.619-0.349
		c0.413-0.231,0.825-0.464,1.238-0.696v-0.697c-4.644-2.89-8.168-7.588-14.549-6.62c-0.533-3.325-10.657-9.868-12.692-9.06
		c-3.636-0.557-2.356-3.119-4.643-4.529c-1.031-0.116-2.064-0.232-3.095-0.349c-7.379-4.955-16.093-9.751-23.836-14.286
		c-2.258-1.323-10.507-5.351-11.453-3.833c-3.345-1.027-3.439-4.186-5.881-5.575c-3.588-2.041-8.013-4.085-11.144-5.575h-4.643
		c-0.104-0.232-0.207-0.465-0.31-0.697c-1.125-0.754-0.913-1.886-1.857-2.787c-1.102-1.951-18.036-8.791-21.05-10.453
		c-3.208-1.771-7.342-4.46-10.215-6.272h-3.714c-2.27-1.857-4.541-3.717-6.81-5.575c-2.064-0.348-4.128-0.696-6.192-1.045
		c-7.215-4.295-13.942-12.805-21.668-16.377c-2.151-0.994-4.596,0.811-5.572,1.046c-1.668,0.401-13.93-2.091-13.93-2.091h-0.928
		c0.27,1.712-0.229,1.047,0.928,1.742v1.742c-0.516-0.116-1.031-0.232-1.548-0.349c-0.103,0.349-0.206,0.698-0.309,1.045
		c3.287,5.844,23.898,14.162,30.645,18.119v1.395c-3.837,1.626-6.44,0.588-10.834,0.348c0.537,1.865,0.991,3.306,0.929,6.272
		l-4.024-0.697c0.302,2.695,1.334,4.213,2.167,6.272c-0.634,0.7-0.441,0.345-0.619,1.742c-0.413,0.117-0.826,0.232-1.239,0.349
		c-1.665-1.386-3.986-3.096-4.643-5.575l-1.238-0.349h-0.31c0.534,4.952,4.701,5.376,6.501,8.711
		c1.543,2.859,2.032,5.635,3.405,8.015h1.547c-0.379-1.323-0.624-1.765-1.547-2.439v-1.046c2.72,0.797,2.745-0.005,4.953-1.045
		l2.166,5.575c1.002,2.949,1.263,0.266,3.406,1.742c3.627,2.5,6.434,8.234,9.905,11.15c3.326,2.793,12.737,7.389,14.859,10.453
		c-0.856,0.791-1.897,0.769-3.096,0.349c-1.132,0.768-0.971,0.204-1.238,2.091c4.162-0.027,5.776-1.481,7.429-1.742
		c5.118,2.434,16.783,7.122,18.883,12.892h1.548c0.309-1.277,0.618-2.554,0.928-3.833c3.214,0.584,4.177,2.65,8.048,2.788
		c0.563,1.23-0.18,0.425,0.929,1.045v1.742c3.404,0.723,11.276,4.257,13.001,7.317c1.225-0.476,1.308-0.538,1.857-1.742
		c5.126,2.674,10.414,9.165,16.097,10.105c0.138,2.703-2.361,6.729-4.024,8.711c2.39,6.438,1.531,11.856,7.429,15.331v1.742
		c4.872,0.912,5.493,5.188,8.977,7.317v1.742c-7.959,1.234-21.297-7.029-24.454-12.544c-3.488-0.293-4.17,2.648-6.501,4.53
		c0.493,6.543,9.628,10.096,11.453,13.589v3.833c0.722,1.161,1.445,2.323,2.167,3.484c1.159-0.726,1.034-1.459,0.929-3.484
		c1.032,0.349,2.063,0.697,3.095,1.045l0.929,6.272c11.833-1.14,38.918,22.8,49.219,30.314c4.223,3.081,10.257,2.974,13.929,6.62
		c0.31,0.93,0.619,1.858,0.929,2.788c2.26,3.007,6.29,5.833,8.977,8.362c11.027,10.378,25.271,15.64,37.455,24.739
		c0.929,1.162,1.858,2.323,2.786,3.484c2.889,1.626,5.779,3.253,8.668,4.879c1.175,1.167,1.982,3.661,3.405,4.529
		c11.781,7.19,22.794,14.164,33.741,21.952c16.063,11.429,38.973,19.815,47.361,39.723c1.41-0.003,1.821,0.057,2.476-0.697
		c0.948-0.727,1.296-2.438,1.548-3.833c1.96,0.349,3.921,0.697,5.881,1.046c0.046-2.014,0.481-3.647,1.548-4.53
		c1.135,0.232,2.27,0.465,3.406,0.697c1.559-0.725,1.406-2.399,4.023-2.788v-1.742c-5.238-0.227-13.25-1.89-17.335-5.575
		c-2.372-3.02-4.746-6.04-7.119-9.06c-5.569-4.647-12.319-7.377-17.954-12.195c-1.332-1.139-2.172-3.468-3.715-4.529
		c-21.062-14.496-41.904-27.935-62.838-42.162c-9.427-6.406-19.145-10.977-27.86-17.771c-4.523-3.526-10.393-4.46-14.549-8.362
		c-2.859-2.686-3.305-7.813-6.5-10.104v-1.743h0.619c1.714-1.253,7.629,3.277,9.596,4.53c9.527,6.069,19.503,9.705,28.169,16.377
		c6.833,5.26,14.938,7.108,21.978,12.195c15.518,11.211,33.464,19.331,48.29,31.36c11.909,9.661,20.598,26.186,37.765,25.784
		c0.516-3.368,1.032-6.736,1.548-10.104c1.685-0.536,2.414-0.711,4.024,0c0.582-1.447,0.957-2.049,0.929-4.53
		c2.906-0.198,5.917-1.833,5.881-6.271l0.929-0.349c5.239,0.612,11.41,6.407,15.168,9.408c2.077,1.658,4.247,0.472,6.81,1.742
		c5.963,2.957,11.645,9.211,17.025,12.893c1.95,1.334,4.16,1.29,5.882,2.787c1.627,1.415,9.946,9.717,11.143,10.104
		c0.151,1.713-0.379,2.628,0.31,3.833c0.736,0.863,2.779,1.575,4.024,1.742v-1.742l3.095,0.697c0.104-1.858,0.207-3.717,0.31-5.575
		h2.167c0.619-3.02,1.238-6.04,1.857-9.06c1.239,0.222,0.922-0.027,1.548,0.697c1.422,0.937,1.688,2.586,1.857,4.878h1.238
		c0.104-4.064,0.207-8.131,0.31-12.195c0.6-1.747,1.499-2.024,1.548-5.227c-1.509-0.094-1.786-0.106-2.477-1.046
		c-1.279-1.391-1.065-5.481-0.928-8.362c-11.291-3.223-17.288-14.381-26.931-18.468v-1.742c-4.042-0.903-5.819-4.806-9.906-5.575
		v-4.529c0.207-0.116,0.413-0.232,0.619-0.349l1.858,0.349c-0.622-3.358-6.769-6.773-8.977-8.711v-0.349
		c9.805,2.917,18.02,11.021,25.383,17.073c1.235,1.016,3.801,2.527,4.953,3.137c1.341-0.115,2.683-0.232,4.024-0.349
		c0.928,1.51,1.857,3.02,2.786,4.529c2.655,2.354,6.931,2.075,9.596,4.182c2.519,1.991,4.978,5.17,7.429,6.969
		c2.373,1.277,4.747,2.556,7.12,3.833c1.015,1.05,0.653,2.869,1.857,3.833c0.103,0.232,0.207,0.465,0.31,0.696
		c0.206-0.58,0.412-1.161,0.619-1.742c1.153,0.667,2.067,2.285,3.095,2.788c1.776,0.868,3.725-0.502,4.953,0.696
		c3.072-0.54,4.217-2.812,6.501-4.181c-0.099-2.307-0.481-2.417-1.548-3.484v-0.349c2.214,0.436,3.89,2.825,4.952,4.529
		c1.919-0.436,1.524-1.055,3.096-1.742C999.005,683.922,999.058,683.459,998.388,682.722z M710.197,500.138
		c-2.786-2.787-5.573-5.576-8.358-8.363v-1.742h-2.476v-2.787h2.476c0.551,1.351,7.194,10.601,8.358,11.15V500.138z M563.47,468.777
		h-1.548c-0.103-0.465-0.206-0.928-0.309-1.394v-0.349h1.857V468.777z M574.923,475.397c-0.206,0.232-0.412,0.465-0.619,0.697
		h-1.857c-0.826-1.394-1.651-2.788-2.476-4.182c0.103-0.116,0.206-0.231,0.309-0.348h1.548c1.032,0.929,2.063,1.858,3.095,2.787
		V475.397z M673.36,540.557c-2.546,0.07-4.087-0.605-4.952-2.439h-0.929c0.206,0.813,0.412,1.627,0.619,2.439
		c-1.032-0.232-2.064-0.465-3.096-0.696v1.742h-1.547c-0.494-1.543-1.331-2.994-2.477-3.833v-1.395
		c2.167,0.465,4.334,0.93,6.501,1.395v-0.349c-4.127-2.903-8.255-5.808-12.382-8.711c-0.207-0.116-0.413-0.232-0.619-0.349v-0.349
		c5.466,0.359,17.876,5.752,20.43,9.06h0.619C675.159,539.541,674.435,539.129,673.36,540.557z M683.885,541.603h-1.857
		c-0.207-0.465-0.413-0.93-0.62-1.395c0.826-0.116,1.651-0.233,2.477-0.348V541.603z M701.839,600.489
		c-4.268,0.283-11.884-5.977-13.93-9.757c6.077,1.766,9.938,4.256,13.93,8.015V600.489z M706.482,603.625
		c-0.829,0.704-2.501-1.17-3.715-2.091c0.207-1.161,0.413-2.323,0.62-3.484c0.825,0.232,1.65,0.465,2.476,0.697
		c0.321,1.35,0.108,1.05,0.929,1.742C706.688,601.534,706.585,602.58,706.482,603.625z M721.65,539.86
		c-14.189-0.924-13.747-14.45-22.907-19.165c-6.085-3.133-17.126-0.905-19.811,4.182c-5.425-0.92-8.895-5.982-13.311-8.015
		c-1.547-0.116-3.095-0.232-4.643-0.348c-1.896-1.32-3.752-3.973-5.881-5.228c-3.837-2.261-7.953-2.269-12.073-4.529
		c-10.726-5.887-26.331-15.165-34.669-24.043c0.103-0.348,0.206-0.696,0.309-1.045v-0.697h5.572c3.45,1.802,5.957,5.939,8.977,8.015
		c5.287,3.632,11.741,3.169,15.478,8.363h0.928c-0.535-4.072-16.877-19.487-20.43-20.211c0.309-0.58,0.619-1.161,0.928-1.742
		c9.321,1.698,18.167,9.473,26.003,13.59c16.889,8.873,35.814,16.972,51.076,27.875c8.657,6.186,15.523,15.774,24.454,21.255V539.86
		z M776.44,659.726c2.521,0.408,3.752,1.845,5.572,3.135C780.309,663.479,777.41,661.128,776.44,659.726z M776.44,659.376
		c-0.924-0.451-0.371,0.015-0.928-0.697C776.436,659.13,775.883,658.664,776.44,659.376z M760.963,534.981l2.167,0.349
		c0.278,1.567,0.716,2.837,1.857,3.484v1.742h-0.929C762.793,538.692,760.597,537.71,760.963,534.981z M742.7,535.33
		c0.923,0.451,0.371-0.015,0.928,0.697C742.704,535.576,743.257,536.042,742.7,535.33z M747.652,539.86h-2.166
		c-0.104-0.93-0.207-1.859-0.31-2.788h-1.548v-0.349v-0.349c2.257,0.377,2.513,1.408,4.024,2.439V539.86z M754.153,541.603
		c4.352,0.291,6.926,3.597,9.905,5.574v1.046C760.491,547.982,755.325,544.507,754.153,541.603z M793.466,584.112
		c-3.17-0.509-26.479-13.524-28.479-15.679c-0.779-0.842-3.766-8.357-4.333-9.758v-0.349c5.677,0.225,9.254,4.831,13.001,7.666
		c-0.413,0.696-0.826,1.394-1.239,2.091c4.625,3.042,9.988,5.292,14.549,8.711c2.16,1.619,4.036,4.283,6.501,5.575V584.112z
		 M817.301,598.747c-2.888-0.604-19.841-10.653-21.359-12.893h-0.619c0.231-1.722,0.309-1.434,0.929-2.439
		c8.228,2.059,13.494,10.415,21.049,13.59V598.747z M834.326,582.021c-10.085-1.569-15.184-12.51-23.525-15.68V564.6h1.547
		c5.565,6.712,14.232,12.314,21.978,16.377V582.021z M850.733,595.263v0.696h-1.239c-0.722-0.812-1.444-1.626-2.167-2.438
		c0.103-0.116,0.207-0.232,0.31-0.349h2.477c0.206,0.349,0.412,0.696,0.619,1.045V595.263z M908.309,644.741
		c-1.998-0.61-10.463-7.713-10.835-9.757c4.552,1.541,6.642,6.084,10.835,8.015V644.741z M910.785,645.786h0.62
		c0.618,0.814,1.238,1.627,1.857,2.439c-0.104,0.349-0.207,0.697-0.31,1.046l-2.167-0.697V645.786z M916.357,661.467v1.045
		c-1.467-0.417-1.326-0.305-1.857-1.742L916.357,661.467z M921.929,665.996c1.651,1.858,3.302,3.717,4.953,5.575
		c0.103,0.929,0.206,1.858,0.309,2.788c-1.14-0.478-1.3-0.669-1.857-1.742h-0.928c0.767,3.03,2.803,3.384,3.714,6.271
		c0.538,1.06,0.039,0.929-0.31,2.787c-6.556-2.624-9.747-11.036-16.405-13.938c0.103-0.929,0.206-1.858,0.309-2.787
		C914.826,665.49,919.422,664.434,921.929,665.996z"/>
	<path clip-path="url(#SVGID_2_)" fill-rule="evenodd" clip-rule="evenodd" fill="#43B4E7" d="M538.087,437.418
		c-0.239-1.913-0.488-2.216-1.857-2.788c-0.515-0.626-1.058-0.729-1.857-1.045c-1.415,0.986-1.401,2.188-1.239,4.878
		c1.841,0.404,2.161,1.496,3.096,2.787h1.238C536.879,439.083,536.108,438.408,538.087,437.418"/>
	<path clip-path="url(#SVGID_2_)" fill="none" stroke="#43B4E7" stroke-width="3" stroke-miterlimit="10" d="M538.087,437.418
		c-0.239-1.913-0.488-2.216-1.857-2.788c-0.515-0.626-1.058-0.729-1.857-1.045c-1.415,0.986-1.401,2.188-1.239,4.878
		c1.841,0.404,2.161,1.496,3.096,2.787h1.238C536.879,439.083,536.108,438.408,538.087,437.418z"/>
	<path clip-path="url(#SVGID_2_)" fill-rule="evenodd" clip-rule="evenodd" fill="#43B4E7" d="M593.806,450.31v-1.742
		c-2.992-1.277-5.985-2.555-8.977-3.832c0.331,2.543,6.156,3.488,8.048,5.574H593.806z"/>
	<path clip-path="url(#SVGID_2_)" fill="none" stroke="#43B4E7" stroke-width="3" stroke-miterlimit="10" d="M593.806,450.31v-1.742
		c-2.992-1.277-5.985-2.555-8.977-3.832c0.331,2.543,6.156,3.488,8.048,5.574H593.806z"/>
	<path clip-path="url(#SVGID_2_)" fill-rule="evenodd" clip-rule="evenodd" fill="#43B4E7" d="M542.73,445.78
		c0.413,0.581,0.825,1.161,1.238,1.742h1.548c-0.473-0.909-0.538-0.599-0.929-1.742H542.73z"/>
	<path clip-path="url(#SVGID_2_)" fill="none" stroke="#43B4E7" stroke-width="3" stroke-miterlimit="10" d="M542.73,445.78
		c0.413,0.581,0.825,1.161,1.238,1.742h1.548c-0.473-0.909-0.538-0.599-0.929-1.742H542.73z"/>
	<path clip-path="url(#SVGID_2_)" fill-rule="evenodd" clip-rule="evenodd" fill="#43B4E7" d="M552.636,460.415
		c-0.059-2.877-1.328-9.556-3.095-10.802c-0.548-1.199-1.229-1.417-2.477-1.742c1.017,3.436,2.086,8.851,3.405,12.544H552.636z"/>
	<path clip-path="url(#SVGID_2_)" fill="none" stroke="#43B4E7" stroke-width="3" stroke-miterlimit="10" d="M552.636,460.415
		c-0.059-2.877-1.328-9.556-3.095-10.802c-0.548-1.199-1.229-1.417-2.477-1.742c1.017,3.436,2.086,8.851,3.405,12.544H552.636z"/>
	<path clip-path="url(#SVGID_2_)" fill-rule="evenodd" clip-rule="evenodd" fill="#43B4E7" d="M597.211,451.355
		c0.207-0.232,0.413-0.465,0.619-0.697h-0.619V451.355z"/>
	<path clip-path="url(#SVGID_2_)" fill="none" stroke="#43B4E7" stroke-width="3" stroke-miterlimit="10" d="M597.211,451.355
		c0.207-0.232,0.413-0.465,0.619-0.697h-0.619V451.355z"/>
	<path clip-path="url(#SVGID_2_)" fill-rule="evenodd" clip-rule="evenodd" fill="#43B4E7" d="M606.807,455.885
		c-0.72-2.285-2.857-3.472-5.572-3.484v1.742c1.549,0.148,2.936,0.714,3.715,1.742H606.807z"/>
	<path clip-path="url(#SVGID_2_)" fill="none" stroke="#43B4E7" stroke-width="3" stroke-miterlimit="10" d="M606.807,455.885
		c-0.72-2.285-2.857-3.472-5.572-3.484v1.742c1.549,0.148,2.936,0.714,3.715,1.742H606.807z"/>
	<path clip-path="url(#SVGID_2_)" fill-rule="evenodd" clip-rule="evenodd" fill="#43B4E7" d="M611.76,457.627v2.091h2.477
		C613.754,458.022,613.629,457.814,611.76,457.627"/>
	<path clip-path="url(#SVGID_2_)" fill="none" stroke="#43B4E7" stroke-width="3" stroke-miterlimit="10" d="M611.76,457.627v2.091
		h2.477C613.754,458.022,613.629,457.814,611.76,457.627z"/>
	<path clip-path="url(#SVGID_2_)" fill-rule="evenodd" clip-rule="evenodd" fill="#43B4E7" d="M549.541,467.035
		c-0.626-1.278-0.016-0.762-1.548-1.045c0.116,1.61,0.264,1.754,0.619,2.787c1.093-0.633,0.377,0.203,0.929-1.045
		C549.735,467.192,550.104,467.321,549.541,467.035"/>
	<path clip-path="url(#SVGID_2_)" fill="none" stroke="#43B4E7" stroke-width="3" stroke-miterlimit="10" d="M549.541,467.035
		c-0.626-1.278-0.016-0.762-1.548-1.045c0.116,1.61,0.264,1.754,0.619,2.787c1.093-0.633,0.377,0.203,0.929-1.045
		C549.735,467.192,550.104,467.321,549.541,467.035z"/>
	<path clip-path="url(#SVGID_2_)" fill-rule="evenodd" clip-rule="evenodd" fill="#43B4E7" d="M555.112,476.095v-0.349
		c-0.516-0.116-1.032-0.232-1.548-0.349C554.187,476.11,553.871,475.894,555.112,476.095"/>
	<path clip-path="url(#SVGID_2_)" fill="none" stroke="#43B4E7" stroke-width="3" stroke-miterlimit="10" d="M555.112,476.095
		v-0.349c-0.516-0.116-1.032-0.232-1.548-0.349C554.187,476.11,553.871,475.894,555.112,476.095z"/>
	<polygon clip-path="url(#SVGID_2_)" fill-rule="evenodd" clip-rule="evenodd" fill="#43B4E7" points="555.422,477.837 
		556.351,478.186 556.66,478.186 556.66,477.14 555.422,477.14 	"/>
	<polygon clip-path="url(#SVGID_2_)" fill="none" stroke="#43B4E7" stroke-width="3" stroke-miterlimit="10" points="
		555.422,477.837 556.351,478.186 556.66,478.186 556.66,477.14 555.422,477.14 	"/>
	<path clip-path="url(#SVGID_2_)" fill-rule="evenodd" clip-rule="evenodd" fill="#43B4E7" d="M556.97,478.883
		c0.206-0.232,0.413-0.465,0.619-0.697h-0.619V478.883z"/>
	<path clip-path="url(#SVGID_2_)" fill="none" stroke="#43B4E7" stroke-width="3" stroke-miterlimit="10" d="M556.97,478.883
		c0.206-0.232,0.413-0.465,0.619-0.697h-0.619V478.883z"/>
	<path clip-path="url(#SVGID_2_)" fill-rule="evenodd" clip-rule="evenodd" fill="#43B4E7" d="M663.146,484.457
		c-0.207,0.232-0.413,0.465-0.619,0.697c0.515,0.115,1.032,0.232,1.547,0.349C663.512,484.272,664.254,485.078,663.146,484.457"/>
	<path clip-path="url(#SVGID_2_)" fill="none" stroke="#43B4E7" stroke-width="3" stroke-miterlimit="10" d="M663.146,484.457
		c-0.207,0.232-0.413,0.465-0.619,0.697c0.515,0.115,1.032,0.232,1.547,0.349C663.512,484.272,664.254,485.078,663.146,484.457z"/>
	<path clip-path="url(#SVGID_2_)" fill-rule="evenodd" clip-rule="evenodd" fill="#43B4E7" d="M641.786,492.82
		c-0.206,0.58-0.413,1.161-0.619,1.742c1.093,0.633,0.377-0.203,0.929,1.045h1.547C643.313,493.6,642.894,493.752,641.786,492.82"/>
	<path clip-path="url(#SVGID_2_)" fill="none" stroke="#43B4E7" stroke-width="3" stroke-miterlimit="10" d="M641.786,492.82
		c-0.206,0.58-0.413,1.161-0.619,1.742c1.093,0.633,0.377-0.203,0.929,1.045h1.547C643.313,493.6,642.894,493.752,641.786,492.82z"
		/>
	<path clip-path="url(#SVGID_2_)" fill-rule="evenodd" clip-rule="evenodd" fill="#43B4E7" d="M678.932,492.82v0.696
		c0.31-0.116,0.619-0.232,0.929-0.348v-0.349H678.932z"/>
	<path clip-path="url(#SVGID_2_)" fill="none" stroke="#43B4E7" stroke-width="3" stroke-miterlimit="10" d="M678.932,492.82v0.696
		c0.31-0.116,0.619-0.232,0.929-0.348v-0.349H678.932z"/>
	<path clip-path="url(#SVGID_2_)" fill-rule="evenodd" clip-rule="evenodd" fill="#43B4E7" d="M649.525,501.183h1.548v-2.787h-1.858
		C649.319,499.324,649.422,500.254,649.525,501.183"/>
	<path clip-path="url(#SVGID_2_)" fill="none" stroke="#43B4E7" stroke-width="3" stroke-miterlimit="10" d="M649.525,501.183h1.548
		v-2.787h-1.858C649.319,499.324,649.422,500.254,649.525,501.183z"/>
	<path clip-path="url(#SVGID_2_)" fill-rule="evenodd" clip-rule="evenodd" fill="#43B4E7" d="M690.386,499.44
		c0.622,0.713,0.306,0.495,1.548,0.697v-0.349C691.417,499.673,690.902,499.557,690.386,499.44"/>
	<path clip-path="url(#SVGID_2_)" fill="none" stroke="#43B4E7" stroke-width="3" stroke-miterlimit="10" d="M690.386,499.44
		c0.622,0.713,0.306,0.495,1.548,0.697v-0.349C691.417,499.673,690.902,499.557,690.386,499.44z"/>
	<path clip-path="url(#SVGID_2_)" fill-rule="evenodd" clip-rule="evenodd" fill="#43B4E7" d="M692.862,500.138h-0.929
		c0.206,0.348,0.413,0.696,0.619,1.045C692.655,500.834,692.758,500.485,692.862,500.138"/>
	<path clip-path="url(#SVGID_2_)" fill="none" stroke="#43B4E7" stroke-width="3" stroke-miterlimit="10" d="M692.862,500.138
		h-0.929c0.206,0.348,0.413,0.696,0.619,1.045C692.655,500.834,692.758,500.485,692.862,500.138z"/>
	<path clip-path="url(#SVGID_2_)" fill-rule="evenodd" clip-rule="evenodd" fill="#43B4E7" d="M699.363,502.925
		c-1.135-0.349-2.271-0.697-3.405-1.045c-0.206,0.116-0.413,0.233-0.619,0.349c0.8,1.661,1.811,2.346,4.024,2.438V502.925z"/>
	<path clip-path="url(#SVGID_2_)" fill="none" stroke="#43B4E7" stroke-width="3" stroke-miterlimit="10" d="M699.363,502.925
		c-1.135-0.349-2.271-0.697-3.405-1.045c-0.206,0.116-0.413,0.233-0.619,0.349c0.8,1.661,1.811,2.346,4.024,2.438V502.925z"/>
	<path clip-path="url(#SVGID_2_)" fill-rule="evenodd" clip-rule="evenodd" fill="#43B4E7" d="M714.221,511.984v1.742
		c0.516,0.116,1.032,0.232,1.548,0.349v-2.091H714.221z"/>
	<path clip-path="url(#SVGID_2_)" fill="none" stroke="#43B4E7" stroke-width="3" stroke-miterlimit="10" d="M714.221,511.984v1.742
		c0.516,0.116,1.032,0.232,1.548,0.349v-2.091H714.221z"/>
	
		<rect x="719.793" y="515.818" clip-path="url(#SVGID_2_)" fill-rule="evenodd" clip-rule="evenodd" fill="#43B4E7" width="1.548" height="1.741"/>
	
		<rect x="719.793" y="515.818" clip-path="url(#SVGID_2_)" fill="none" stroke="#43B4E7" stroke-width="3" stroke-miterlimit="10" width="1.548" height="1.741"/>
	<path clip-path="url(#SVGID_2_)" fill-rule="evenodd" clip-rule="evenodd" fill="#43B4E7" d="M674.908,517.908h0.31
		c0.206-0.232,0.412-0.465,0.619-0.697c-0.31-0.232-0.619-0.465-0.929-0.696V517.908z"/>
	<path clip-path="url(#SVGID_2_)" fill="none" stroke="#43B4E7" stroke-width="3" stroke-miterlimit="10" d="M674.908,517.908h0.31
		c0.206-0.232,0.412-0.465,0.619-0.697c-0.31-0.232-0.619-0.465-0.929-0.696V517.908z"/>
	<path clip-path="url(#SVGID_2_)" fill-rule="evenodd" clip-rule="evenodd" fill="#43B4E7" d="M627.237,590.384
		c0.31-0.116,0.619-0.232,0.929-0.348v-0.349h-0.929V590.384z"/>
	<path clip-path="url(#SVGID_2_)" fill="none" stroke="#43B4E7" stroke-width="3" stroke-miterlimit="10" d="M627.237,590.384
		c0.31-0.116,0.619-0.232,0.929-0.348v-0.349h-0.929V590.384z"/>
	<path clip-path="url(#SVGID_2_)" fill-rule="evenodd" clip-rule="evenodd" fill="#43B4E7" d="M629.095,590.384
		c0.207-0.231,0.413-0.464,0.619-0.696h-0.619V590.384z"/>
	<path clip-path="url(#SVGID_2_)" fill="none" stroke="#43B4E7" stroke-width="3" stroke-miterlimit="10" d="M629.095,590.384
		c0.207-0.231,0.413-0.464,0.619-0.696h-0.619V590.384z"/>
	<path clip-path="url(#SVGID_2_)" fill-rule="evenodd" clip-rule="evenodd" fill="#43B4E7" d="M667.479,610.942
		c-1.347-3.233-24.458-19.287-28.788-21.255h-8.358c-0.079,1.418-0.409,0.814,0.31,1.742c1.495,1.447,4.287-0.182,6.5,0.696
		c1.018,0.404,1.213,2.202,2.167,2.788c4.47,2.745,9.492,1.42,11.763,6.62c0.996-0.489,0.604-0.351,1.238-1.045
		c0.207,0.116,0.413,0.232,0.619,0.35c0.516,1.856,1.032,3.716,1.548,5.573c3.768,1.098,7.562-0.396,11.144,4.182L667.479,610.942z"
		/>
	<path clip-path="url(#SVGID_2_)" fill="none" stroke="#43B4E7" stroke-width="3" stroke-miterlimit="10" d="M667.479,610.942
		c-1.347-3.233-24.458-19.287-28.788-21.255h-8.358c-0.079,1.418-0.409,0.814,0.31,1.742c1.495,1.447,4.287-0.182,6.5,0.696
		c1.018,0.404,1.213,2.202,2.167,2.788c4.47,2.745,9.492,1.42,11.763,6.62c0.996-0.489,0.604-0.351,1.238-1.045
		c0.207,0.116,0.413,0.232,0.619,0.35c0.516,1.856,1.032,3.716,1.548,5.573c3.768,1.098,7.562-0.396,11.144,4.182L667.479,610.942z"
		/>
	<path clip-path="url(#SVGID_2_)" fill-rule="evenodd" clip-rule="evenodd" fill="#43B4E7" d="M649.525,602.58v1.045l0.929-0.349
		c0.206-0.58,0.413-1.161,0.619-1.742h-0.929C649.744,602.574,650.157,601.952,649.525,602.58"/>
	<path clip-path="url(#SVGID_2_)" fill="none" stroke="#43B4E7" stroke-width="3" stroke-miterlimit="10" d="M649.525,602.58v1.045
		l0.929-0.349c0.206-0.58,0.413-1.161,0.619-1.742h-0.929C649.744,602.574,650.157,601.952,649.525,602.58z"/>
	<path clip-path="url(#SVGID_2_)" fill-rule="evenodd" clip-rule="evenodd" fill="#43B4E7" d="M669.027,611.64v-0.349
		c-0.516-0.116-1.032-0.232-1.548-0.349C668.101,611.655,667.786,611.438,669.027,611.64"/>
	<path clip-path="url(#SVGID_2_)" fill="none" stroke="#43B4E7" stroke-width="3" stroke-miterlimit="10" d="M669.027,611.64v-0.349
		c-0.516-0.116-1.032-0.232-1.548-0.349C668.101,611.655,667.786,611.438,669.027,611.64z"/>
	<path clip-path="url(#SVGID_2_)" fill-rule="evenodd" clip-rule="evenodd" fill="#43B4E7" d="M669.956,612.685
		c-0.562-1.229,0.18-0.425-0.929-1.045v1.045H669.956z"/>
	<path clip-path="url(#SVGID_2_)" fill="none" stroke="#43B4E7" stroke-width="3" stroke-miterlimit="10" d="M669.956,612.685
		c-0.562-1.229,0.18-0.425-0.929-1.045v1.045H669.956z"/>
	<path clip-path="url(#SVGID_2_)" fill-rule="evenodd" clip-rule="evenodd" fill="#43B4E7" d="M673.051,613.729
		c-1.942-1.241-2.239,1.231-3.714,0.697c-1.084-0.393-1.701-1.549-3.715-1.742v1.742c4.072-0.055,12.668,6.289,14.239,9.06
		c0.413,0.116,0.826,0.232,1.238,0.349h0.31c-0.31-1.277-0.619-2.556-0.929-3.833C676.631,619.114,675.813,615.496,673.051,613.729"
		/>
	<path clip-path="url(#SVGID_2_)" fill="none" stroke="#43B4E7" stroke-width="3" stroke-miterlimit="10" d="M673.051,613.729
		c-1.942-1.241-2.239,1.231-3.714,0.697c-1.084-0.393-1.701-1.549-3.715-1.742v1.742c4.072-0.055,12.668,6.289,14.239,9.06
		c0.413,0.116,0.826,0.232,1.238,0.349h0.31c-0.31-1.277-0.619-2.556-0.929-3.833C676.631,619.114,675.813,615.496,673.051,613.729z
		"/>
	<path clip-path="url(#SVGID_2_)" fill-rule="evenodd" clip-rule="evenodd" fill="#43B4E7" d="M690.386,629.062v-1.742h-2.477
		C688.474,628.789,688.665,628.883,690.386,629.062"/>
	<path clip-path="url(#SVGID_2_)" fill="none" stroke="#43B4E7" stroke-width="3" stroke-miterlimit="10" d="M690.386,629.062
		v-1.742h-2.477C688.474,628.789,688.665,628.883,690.386,629.062z"/>
	<path clip-path="url(#SVGID_2_)" fill-rule="evenodd" clip-rule="evenodd" fill="#43B4E7" d="M692.862,629.062
		c-0.207,0.349-0.413,0.696-0.619,1.045c0.624,0.629,0.229-0.008,0.619,1.046h2.476
		C694.784,629.712,694.273,629.492,692.862,629.062"/>
	<path clip-path="url(#SVGID_2_)" fill="none" stroke="#43B4E7" stroke-width="3" stroke-miterlimit="10" d="M692.862,629.062
		c-0.207,0.349-0.413,0.696-0.619,1.045c0.624,0.629,0.229-0.008,0.619,1.046h2.476
		C694.784,629.712,694.273,629.492,692.862,629.062z"/>
	<path clip-path="url(#SVGID_2_)" fill-rule="evenodd" clip-rule="evenodd" fill="#43B4E7" d="M695.958,631.5
		c0,0,10.757,7.972,10.834,8.015v0.697c2.149,0.855,2.322-0.848,4.334,0.696h0.31v-1.394c-4.939-2.303-9.165-8.227-15.168-8.711
		C696.165,631.036,696.061,631.269,695.958,631.5"/>
	<path clip-path="url(#SVGID_2_)" fill="none" stroke="#43B4E7" stroke-width="3" stroke-miterlimit="10" d="M695.958,631.5
		c0,0,10.757,7.972,10.834,8.015v0.697c2.149,0.855,2.322-0.848,4.334,0.696h0.31v-1.394c-4.939-2.303-9.165-8.227-15.168-8.711
		C696.165,631.036,696.061,631.269,695.958,631.5z"/>
	<path clip-path="url(#SVGID_2_)" fill-rule="evenodd" clip-rule="evenodd" fill="#43B4E7" d="M711.745,641.257
		c0.825,1.161,1.651,2.323,2.477,3.484c0.515,0.116,1.031,0.232,1.547,0.349c-0.825-1.277-1.651-2.556-2.476-3.833H711.745z"/>
	<path clip-path="url(#SVGID_2_)" fill="none" stroke="#43B4E7" stroke-width="3" stroke-miterlimit="10" d="M711.745,641.257
		c0.825,1.161,1.651,2.323,2.477,3.484c0.515,0.116,1.031,0.232,1.547,0.349c-0.825-1.277-1.651-2.556-2.476-3.833H711.745z"/>
	<path clip-path="url(#SVGID_2_)" fill-rule="evenodd" clip-rule="evenodd" fill="#43B4E7" d="M715.769,645.786
		c0.206-0.231,0.413-0.464,0.619-0.696h-0.619V645.786z"/>
	<path clip-path="url(#SVGID_2_)" fill="none" stroke="#43B4E7" stroke-width="3" stroke-miterlimit="10" d="M715.769,645.786
		c0.206-0.231,0.413-0.464,0.619-0.696h-0.619V645.786z"/>
	<path clip-path="url(#SVGID_2_)" fill-rule="evenodd" clip-rule="evenodd" fill="#43B4E7" d="M921.31,668.087
		c-0.516-0.116-1.032-0.232-1.548-0.349v1.046h1.548V668.087z"/>
	<path clip-path="url(#SVGID_2_)" fill="none" stroke="#43B4E7" stroke-width="3" stroke-miterlimit="10" d="M921.31,668.087
		c-0.516-0.116-1.032-0.232-1.548-0.349v1.046h1.548V668.087z"/>
	<path clip-path="url(#SVGID_2_)" fill-rule="evenodd" clip-rule="evenodd" fill="#43B4E7" d="M906.761,692.826
		c-0.679-1.469-1.88-2.312-3.405-2.787c0.411,2.552,1.28,2.055,2.476,3.484c0.516,0.116,1.033,0.232,1.548,0.349
		C906.98,692.832,907.393,693.454,906.761,692.826"/>
	<path clip-path="url(#SVGID_2_)" fill="none" stroke="#43B4E7" stroke-width="3" stroke-miterlimit="10" d="M906.761,692.826
		c-0.679-1.469-1.88-2.312-3.405-2.787c0.411,2.552,1.28,2.055,2.476,3.484c0.516,0.116,1.033,0.232,1.548,0.349
		C906.98,692.832,907.393,693.454,906.761,692.826z"/>
	<path clip-path="url(#SVGID_2_)" fill-rule="evenodd" clip-rule="evenodd" fill="#43B4E7" d="M911.405,698.401
		c0.674,1.597,1.622,2.219,2.476,3.484c0.516-0.232,1.032-0.464,1.548-0.696c-0.722-0.93-1.445-1.858-2.167-2.788H911.405z"/>
	<path clip-path="url(#SVGID_2_)" fill="none" stroke="#43B4E7" stroke-width="3" stroke-miterlimit="10" d="M911.405,698.401
		c0.674,1.597,1.622,2.219,2.476,3.484c0.516-0.232,1.032-0.464,1.548-0.696c-0.722-0.93-1.445-1.858-2.167-2.788H911.405z"/>
	<polygon clip-path="url(#SVGID_2_)" fill-rule="evenodd" clip-rule="evenodd" fill="#43B4E7" points="917.286,704.674 
		918.215,704.325 918.215,703.977 917.286,703.977 	"/>
	<polygon clip-path="url(#SVGID_2_)" fill="none" stroke="#43B4E7" stroke-width="3" stroke-miterlimit="10" points="
		917.286,704.674 918.215,704.325 918.215,703.977 917.286,703.977 	"/>
</g>
</svg>
